# MagicaVoxel @ Ephtracy

# material
mtllib dash.mtl
usemtl palette

# normals
vn -1 0 0
vn 1 0 0
vn 0 0 1
vn 0 0 -1
vn 0 -1 0
vn 0 1 0

# texcoords
vt 0.00976563 0.5
vt 0.201172 0.5
vt 0.208984 0.5
vt 0.501953 0.5
vt 0.537109 0.5
vt 0.830078 0.5
vt 0.833984 0.5
vt 0.931641 0.5
vt 0.990234 0.5
vt 0.994141 0.5

# verts
v -3 6 3.5
v -3 6 0.5
v -3 6 -0.5
v -3 7 3.5
v -3 7 0.5
v -3 7 -0.5
v -3 9 2.5
v -3 9 -2.5
v -3 10 2.5
v -3 10 -2.5
v -2 0 1.5
v -2 0 0.5
v -2 1 1.5
v -2 1 0.5
v -2 2 1.5
v -2 2 0.5
v -2 3 1.5
v -2 3 0.5
v -2 3 -0.5
v -2 4 0.5
v -2 4 -0.5
v -2 6 4.5
v -2 6 3.5
v -2 6 0.5
v -2 6 -0.5
v -2 7 4.5
v -2 7 3.5
v -2 7 0.5
v -2 7 -0.5
v -2 8 1.5
v -2 8 0.5
v -2 8 -0.5
v -2 8 -1.5
v -2 9 1.5
v -2 9 0.5
v -2 9 -1.5
v -2 10 0.5
v -2 10 -0.5
v -2 11 0.5
v -2 11 -0.5
v -2 12 0.5
v -2 12 -0.5
v -1 2 0.5
v -1 2 -1.5
v -1 3 1.5
v -1 3 0.5
v -1 3 -0.5
v -1 4 1.5
v -1 4 0.5
v -1 4 -0.5
v -1 4 -1.5
v -1 6 8.5
v -1 6 4.5
v -1 6 2.5
v -1 6 1.5
v -1 7 8.5
v -1 7 4.5
v -1 7 2.5
v -1 7 1.5
v -1 7 0.5
v -1 7 -0.5
v -1 7 -1.5
v -1 8 1.5
v -1 8 0.5
v -1 8 -0.5
v -1 8 -1.5
v -1 10 1.5
v -1 10 0.5
v -1 10 -0.5
v -1 10 -1.5
v -1 11 1.5
v -1 11 0.5
v -1 11 -0.5
v -1 11 -1.5
v -1 12 1.5
v -1 12 0.5
v -1 12 -0.5
v -1 12 -1.5
v 1 0 -0.5
v 1 0 -1.5
v 1 1 -0.5
v 1 1 -1.5
v 1 2 -0.5
v 1 2 -1.5
v 2 2 0.5
v 2 2 -0.5
v 2 3 0.5
v 2 3 -0.5
v 2 4 -0.5
v 2 4 -1.5
v 2 4 -2.5
v 2 5 -0.5
v 2 5 -1.5
v 2 6 -0.5
v 2 6 -1.5
v 2 7 -0.5
v 2 7 -2.5
v -2 6 2.5
v -2 6 0.5
v -2 7 2.5
v -2 7 0.5
v -1 0 1.5
v -1 0 0.5
v -1 1 1.5
v -1 1 0.5
v -1 2 1.5
v -1 2 0.5
v 0 6 8.5
v 0 6 4.5
v 0 6 3.5
v 0 6 2.5
v 0 6 1.5
v 0 7 8.5
v 0 7 4.5
v 0 7 3.5
v 0 7 2.5
v 0 7 1.5
v 1 2 1.5
v 1 2 -0.5
v 1 3 0.5
v 1 3 -0.5
v 1 3 -1.5
v 1 4 1.5
v 1 4 0.5
v 1 4 -0.5
v 1 4 -1.5
v 1 6 4.5
v 1 6 3.5
v 1 7 4.5
v 1 7 3.5
v 1 7 1.5
v 1 7 0.5
v 1 7 -0.5
v 1 7 -1.5
v 1 8 1.5
v 1 8 0.5
v 1 8 -0.5
v 1 8 -1.5
v 1 10 1.5
v 1 10 0.5
v 1 10 -0.5
v 1 10 -1.5
v 1 11 1.5
v 1 11 0.5
v 1 11 -0.5
v 1 11 -1.5
v 1 12 1.5
v 1 12 0.5
v 1 12 -0.5
v 1 12 -1.5
v 2 0 -0.5
v 2 0 -1.5
v 2 1 -0.5
v 2 1 -1.5
v 2 2 -0.5
v 2 2 -1.5
v 2 3 -0.5
v 2 3 -1.5
v 2 5 0.5
v 2 5 -0.5
v 2 6 0.5
v 2 6 -0.5
v 2 7 0.5
v 2 7 -0.5
v 2 8 1.5
v 2 8 0.5
v 2 8 -0.5
v 2 8 -1.5
v 2 9 1.5
v 2 9 0.5
v 2 9 -1.5
v 2 10 0.5
v 2 10 -0.5
v 2 11 0.5
v 2 11 -0.5
v 2 12 0.5
v 2 12 -0.5
v 3 2 0.5
v 3 2 -0.5
v 3 4 -0.5
v 3 4 -1.5
v 3 4 -2.5
v 3 5 0.5
v 3 5 -1.5
v 3 6 0.5
v 3 6 -0.5
v 3 6 -1.5
v 3 7 0.5
v 3 7 -0.5
v 3 7 -2.5
v 3 9 2.5
v 3 9 -2.5
v 3 10 2.5
v 3 10 -2.5
v -1 6 8.5
v -1 7 8.5
v 0 6 8.5
v 0 7 8.5
v -2 6 4.5
v -2 7 4.5
v -1 6 4.5
v -1 7 4.5
v 0 6 4.5
v 0 7 4.5
v 1 6 4.5
v 1 7 4.5
v -3 6 3.5
v -3 7 3.5
v -2 6 3.5
v -2 7 3.5
v -3 9 2.5
v -3 10 2.5
v 3 9 2.5
v 3 10 2.5
v -2 0 1.5
v -2 1 1.5
v -2 2 1.5
v -2 3 1.5
v -2 8 1.5
v -2 9 1.5
v -1 0 1.5
v -1 1 1.5
v -1 2 1.5
v -1 3 1.5
v -1 4 1.5
v -1 6 1.5
v -1 7 1.5
v -1 8 1.5
v -1 9 1.5
v -1 10 1.5
v -1 11 1.5
v -1 12 1.5
v 0 6 1.5
v 0 7 1.5
v 1 2 1.5
v 1 4 1.5
v 1 7 1.5
v 1 8 1.5
v 1 9 1.5
v 1 10 1.5
v 1 11 1.5
v 1 12 1.5
v 2 8 1.5
v 2 9 1.5
v -2 3 0.5
v -2 4 0.5
v -2 6 0.5
v -2 7 0.5
v -2 8 0.5
v -2 10 0.5
v -2 11 0.5
v -2 12 0.5
v -1 3 0.5
v -1 4 0.5
v -1 7 0.5
v -1 8 0.5
v -1 10 0.5
v -1 11 0.5
v -1 12 0.5
v 1 3 0.5
v 1 4 0.5
v 1 7 0.5
v 1 8 0.5
v 1 10 0.5
v 1 11 0.5
v 1 12 0.5
v 2 2 0.5
v 2 3 0.5
v 2 4 0.5
v 2 5 0.5
v 2 6 0.5
v 2 7 0.5
v 2 8 0.5
v 2 10 0.5
v 2 11 0.5
v 2 12 0.5
v 3 2 0.5
v 3 5 0.5
v 3 6 0.5
v 3 7 0.5
v 1 0 -0.5
v 1 1 -0.5
v 1 2 -0.5
v 1 3 -0.5
v 2 0 -0.5
v 2 1 -0.5
v 2 2 -0.5
v 2 3 -0.5
v 2 5 -1.5
v 2 6 -1.5
v 3 5 -1.5
v 3 6 -1.5
v 0 6 3.5
v 0 7 3.5
v 1 6 3.5
v 1 7 3.5
v -2 6 2.5
v -2 7 2.5
v -1 6 2.5
v -1 7 2.5
v -2 0 0.5
v -2 1 0.5
v -2 2 0.5
v -2 3 0.5
v -1 0 0.5
v -1 1 0.5
v -1 2 0.5
v -1 3 0.5
v -3 6 -0.5
v -3 7 -0.5
v -2 3 -0.5
v -2 4 -0.5
v -2 6 -0.5
v -2 7 -0.5
v -2 8 -0.5
v -2 10 -0.5
v -2 11 -0.5
v -2 12 -0.5
v -1 3 -0.5
v -1 4 -0.5
v -1 7 -0.5
v -1 8 -0.5
v -1 10 -0.5
v -1 11 -0.5
v -1 12 -0.5
v 1 3 -0.5
v 1 4 -0.5
v 1 7 -0.5
v 1 8 -0.5
v 1 10 -0.5
v 1 11 -0.5
v 1 12 -0.5
v 2 2 -0.5
v 2 3 -0.5
v 2 4 -0.5
v 2 5 -0.5
v 2 6 -0.5
v 2 7 -0.5
v 2 8 -0.5
v 2 10 -0.5
v 2 11 -0.5
v 2 12 -0.5
v 3 2 -0.5
v 3 4 -0.5
v -2 8 -1.5
v -2 9 -1.5
v -1 2 -1.5
v -1 4 -1.5
v -1 7 -1.5
v -1 8 -1.5
v -1 10 -1.5
v -1 11 -1.5
v -1 12 -1.5
v 1 0 -1.5
v 1 1 -1.5
v 1 2 -1.5
v 1 3 -1.5
v 1 4 -1.5
v 1 7 -1.5
v 1 8 -1.5
v 1 10 -1.5
v 1 11 -1.5
v 1 12 -1.5
v 2 0 -1.5
v 2 1 -1.5
v 2 2 -1.5
v 2 3 -1.5
v 2 8 -1.5
v 2 9 -1.5
v -3 9 -2.5
v -3 10 -2.5
v 2 4 -2.5
v 2 7 -2.5
v 3 4 -2.5
v 3 7 -2.5
v 3 9 -2.5
v 3 10 -2.5
v -2 0 1.5
v -1 0 1.5
v -2 0 0.5
v -1 0 0.5
v 1 0 -0.5
v 2 0 -0.5
v 1 0 -1.5
v 2 0 -1.5
v -1 2 1.5
v 1 2 1.5
v -1 2 0.5
v 2 2 0.5
v 3 2 0.5
v 1 2 -0.5
v 2 2 -0.5
v 3 2 -0.5
v -1 2 -1.5
v 1 2 -1.5
v -2 3 0.5
v -1 3 0.5
v 1 3 0.5
v 2 3 0.5
v -2 3 -0.5
v -1 3 -0.5
v 1 3 -0.5
v 2 3 -0.5
v 2 4 -0.5
v 3 4 -0.5
v 2 4 -1.5
v 3 4 -1.5
v 2 4 -2.5
v 3 4 -2.5
v -1 6 8.5
v 0 6 8.5
v -2 6 4.5
v -1 6 4.5
v 0 6 4.5
v 1 6 4.5
v -3 6 3.5
v -2 6 3.5
v 0 6 3.5
v 1 6 3.5
v -2 6 2.5
v -1 6 2.5
v 0 6 2.5
v -1 6 1.5
v 0 6 1.5
v -3 6 0.5
v -2 6 0.5
v 2 6 0.5
v 3 6 0.5
v -3 6 -0.5
v -2 6 -0.5
v 2 6 -0.5
v 3 6 -0.5
v 2 6 -1.5
v 3 6 -1.5
v -2 8 1.5
v -1 8 1.5
v 1 8 1.5
v 2 8 1.5
v -2 8 0.5
v -1 8 0.5
v 1 8 0.5
v 2 8 0.5
v -2 8 -0.5
v -1 8 -0.5
v 1 8 -0.5
v 2 8 -0.5
v -2 8 -1.5
v -1 8 -1.5
v 1 8 -1.5
v 2 8 -1.5
v -3 9 2.5
v 3 9 2.5
v -2 9 1.5
v -1 9 1.5
v 1 9 1.5
v 2 9 1.5
v -2 9 0.5
v 2 9 0.5
v -2 9 -1.5
v 2 9 -1.5
v -3 9 -2.5
v 3 9 -2.5
v -2 3 1.5
v -1 3 1.5
v -2 3 0.5
v -1 3 0.5
v 1 3 -0.5
v 2 3 -0.5
v 1 3 -1.5
v 2 3 -1.5
v 2 5 0.5
v 3 5 0.5
v 2 5 -0.5
v 2 5 -1.5
v 3 5 -1.5
v -1 7 8.5
v 0 7 8.5
v -2 7 4.5
v -1 7 4.5
v 0 7 4.5
v 1 7 4.5
v -3 7 3.5
v -2 7 3.5
v 0 7 3.5
v 1 7 3.5
v -2 7 2.5
v -1 7 2.5
v 0 7 2.5
v -1 7 1.5
v 0 7 1.5
v -3 7 0.5
v -2 7 0.5
v 2 7 0.5
v 3 7 0.5
v -3 7 -0.5
v -2 7 -0.5
v 2 7 -0.5
v 3 7 -0.5
v 2 7 -2.5
v 3 7 -2.5
v -3 10 2.5
v 3 10 2.5
v -1 10 1.5
v 1 10 1.5
v -2 10 0.5
v -1 10 0.5
v 1 10 0.5
v 2 10 0.5
v -2 10 -0.5
v -1 10 -0.5
v 1 10 -0.5
v 2 10 -0.5
v -1 10 -1.5
v 1 10 -1.5
v -3 10 -2.5
v 3 10 -2.5
v -1 12 1.5
v 1 12 1.5
v -2 12 0.5
v -1 12 0.5
v 1 12 0.5
v 2 12 0.5
v -2 12 -0.5
v -1 12 -0.5
v 1 12 -0.5
v 2 12 -0.5
v -1 12 -1.5
v 1 12 -1.5

# faces
f 4/2/1 2/2/1 1/2/1
f 5/5/1 3/5/1 2/5/1
f 5/2/1 2/2/1 4/2/1
f 6/5/1 3/5/1 5/5/1
f 9/1/1 8/1/1 7/1/1
f 10/1/1 8/1/1 9/1/1
f 13/9/1 12/9/1 11/9/1
f 14/9/1 12/9/1 13/9/1
f 15/2/1 14/2/1 13/2/1
f 16/2/1 14/2/1 15/2/1
f 17/7/1 16/7/1 15/7/1
f 18/7/1 16/7/1 17/7/1
f 20/7/1 19/7/1 18/7/1
f 21/7/1 19/7/1 20/7/1
f 24/5/1 21/5/1 20/5/1
f 25/5/1 21/5/1 24/5/1
f 26/4/1 23/4/1 22/4/1
f 27/4/1 23/4/1 26/4/1
f 31/2/1 29/2/1 28/2/1
f 32/2/1 29/2/1 31/2/1
f 34/10/1 31/10/1 30/10/1
f 35/2/1 32/2/1 31/2/1
f 35/10/1 31/10/1 34/10/1
f 35/2/1 33/2/1 32/2/1
f 36/2/1 33/2/1 35/2/1
f 39/9/1 38/9/1 37/9/1
f 40/9/1 38/9/1 39/9/1
f 41/1/1 40/1/1 39/1/1
f 42/1/1 40/1/1 41/1/1
f 46/7/1 44/7/1 43/7/1
f 47/7/1 44/7/1 46/7/1
f 48/7/1 46/7/1 45/7/1
f 49/7/1 46/7/1 48/7/1
f 50/7/1 44/7/1 47/7/1
f 51/7/1 44/7/1 50/7/1
f 55/5/1 49/5/1 48/5/1
f 56/4/1 53/4/1 52/4/1
f 57/4/1 53/4/1 56/4/1
f 58/4/1 55/4/1 54/4/1
f 59/5/1 49/5/1 55/5/1
f 59/4/1 55/4/1 58/4/1
f 60/5/1 49/5/1 59/5/1
f 61/5/1 51/5/1 50/5/1
f 62/5/1 51/5/1 61/5/1
f 63/2/1 60/2/1 59/2/1
f 64/2/1 60/2/1 63/2/1
f 65/2/1 62/2/1 61/2/1
f 66/2/1 62/2/1 65/2/1
f 71/9/1 68/9/1 67/9/1
f 72/9/1 68/9/1 71/9/1
f 73/9/1 70/9/1 69/9/1
f 74/9/1 70/9/1 73/9/1
f 75/1/1 72/1/1 71/1/1
f 76/1/1 72/1/1 75/1/1
f 77/1/1 74/1/1 73/1/1
f 78/1/1 74/1/1 77/1/1
f 81/9/1 80/9/1 79/9/1
f 82/9/1 80/9/1 81/9/1
f 83/2/1 82/2/1 81/2/1
f 84/2/1 82/2/1 83/2/1
f 87/9/1 86/9/1 85/9/1
f 88/9/1 86/9/1 87/9/1
f 92/9/1 90/9/1 89/9/1
f 93/2/1 91/2/1 90/2/1
f 93/9/1 90/9/1 92/9/1
f 95/2/1 91/2/1 93/2/1
f 96/2/1 95/2/1 94/2/1
f 97/2/1 91/2/1 95/2/1
f 97/2/1 95/2/1 96/2/1
f 98/2/2 99/2/2 100/2/2
f 100/2/2 99/2/2 101/2/2
f 102/9/2 103/9/2 104/9/2
f 104/9/2 103/9/2 105/9/2
f 104/2/2 105/2/2 106/2/2
f 106/2/2 105/2/2 107/2/2
f 108/4/2 109/4/2 113/4/2
f 113/4/2 109/4/2 114/4/2
f 110/2/2 111/2/2 115/2/2
f 111/4/2 112/4/2 116/4/2
f 115/2/2 111/2/2 116/2/2
f 116/4/2 112/4/2 117/4/2
f 118/7/2 119/7/2 120/7/2
f 120/7/2 119/7/2 121/7/2
f 118/7/2 120/7/2 123/7/2
f 123/7/2 120/7/2 124/7/2
f 121/7/2 122/7/2 125/7/2
f 125/7/2 122/7/2 126/7/2
f 127/4/2 128/4/2 129/4/2
f 129/4/2 128/4/2 130/4/2
f 123/5/2 124/5/2 131/5/2
f 131/5/2 124/5/2 132/5/2
f 125/5/2 126/5/2 133/5/2
f 133/5/2 126/5/2 134/5/2
f 131/2/2 132/2/2 135/2/2
f 135/2/2 132/2/2 136/2/2
f 133/2/2 134/2/2 137/2/2
f 137/2/2 134/2/2 138/2/2
f 139/9/2 140/9/2 143/9/2
f 143/9/2 140/9/2 144/9/2
f 141/9/2 142/9/2 145/9/2
f 145/9/2 142/9/2 146/9/2
f 143/1/2 144/1/2 147/1/2
f 147/1/2 144/1/2 148/1/2
f 145/1/2 146/1/2 149/1/2
f 149/1/2 146/1/2 150/1/2
f 151/9/2 152/9/2 153/9/2
f 153/9/2 152/9/2 154/9/2
f 153/2/2 154/2/2 155/2/2
f 155/2/2 154/2/2 156/2/2
f 155/7/2 156/7/2 157/7/2
f 157/7/2 156/7/2 158/7/2
f 159/5/2 160/5/2 161/5/2
f 161/5/2 160/5/2 162/5/2
f 163/2/2 164/2/2 166/2/2
f 166/2/2 164/2/2 167/2/2
f 165/10/2 166/10/2 169/10/2
f 166/2/2 167/2/2 170/2/2
f 169/10/2 166/10/2 170/10/2
f 167/2/2 168/2/2 170/2/2
f 170/2/2 168/2/2 171/2/2
f 172/9/2 173/9/2 174/9/2
f 174/9/2 173/9/2 175/9/2
f 174/1/2 175/1/2 176/1/2
f 176/1/2 175/1/2 177/1/2
f 178/9/2 179/9/2 180/9/2
f 178/9/2 180/9/2 183/9/2
f 180/9/2 181/9/2 183/9/2
f 181/2/2 182/2/2 184/2/2
f 183/9/2 181/9/2 184/9/2
f 184/2/2 182/2/2 187/2/2
f 185/5/2 186/5/2 188/5/2
f 186/2/2 187/2/2 189/2/2
f 188/5/2 186/5/2 189/5/2
f 187/2/2 182/2/2 190/2/2
f 189/2/2 187/2/2 190/2/2
f 191/1/2 192/1/2 193/1/2
f 193/1/2 192/1/2 194/1/2
f 197/4/3 196/4/3 195/4/3
f 198/4/3 196/4/3 197/4/3
f 201/4/3 200/4/3 199/4/3
f 202/4/3 200/4/3 201/4/3
f 205/4/3 204/4/3 203/4/3
f 206/4/3 204/4/3 205/4/3
f 209/2/3 208/2/3 207/2/3
f 210/2/3 208/2/3 209/2/3
f 213/1/3 212/1/3 211/1/3
f 214/1/3 212/1/3 213/1/3
f 221/9/3 216/9/3 215/9/3
f 222/2/3 217/2/3 216/2/3
f 222/9/3 216/9/3 221/9/3
f 223/7/3 218/7/3 217/7/3
f 223/2/3 217/2/3 222/2/3
f 224/7/3 218/7/3 223/7/3
f 228/10/3 220/10/3 219/10/3
f 229/10/3 220/10/3 228/10/3
f 233/5/3 226/5/3 225/5/3
f 234/2/3 229/2/3 228/2/3
f 234/2/3 228/2/3 227/2/3
f 235/7/3 224/7/3 223/7/3
f 235/7/3 225/7/3 224/7/3
f 236/5/3 233/5/3 225/5/3
f 236/7/3 225/7/3 235/7/3
f 236/5/3 234/5/3 233/5/3
f 237/2/3 229/2/3 234/2/3
f 237/5/3 234/5/3 236/5/3
f 238/2/3 229/2/3 237/2/3
f 239/2/3 229/2/3 238/2/3
f 240/9/3 231/9/3 230/9/3
f 241/1/3 232/1/3 231/1/3
f 241/9/3 231/9/3 240/9/3
f 242/1/3 232/1/3 241/1/3
f 243/10/3 239/10/3 238/10/3
f 244/10/3 239/10/3 243/10/3
f 253/7/3 246/7/3 245/7/3
f 254/5/3 247/5/3 246/5/3
f 254/7/3 246/7/3 253/7/3
f 254/5/3 248/5/3 247/5/3
f 255/2/3 249/2/3 248/2/3
f 255/5/3 248/5/3 254/5/3
f 256/2/3 249/2/3 255/2/3
f 257/9/3 251/9/3 250/9/3
f 258/1/3 252/1/3 251/1/3
f 258/9/3 251/9/3 257/9/3
f 259/1/3 252/1/3 258/1/3
f 268/7/3 261/7/3 260/7/3
f 269/5/3 262/5/3 261/5/3
f 269/7/3 261/7/3 268/7/3
f 270/5/3 262/5/3 269/5/3
f 271/5/3 262/5/3 270/5/3
f 272/2/3 263/2/3 262/2/3
f 272/5/3 262/5/3 271/5/3
f 273/2/3 263/2/3 272/2/3
f 274/9/3 265/9/3 264/9/3
f 275/1/3 266/1/3 265/1/3
f 275/9/3 265/9/3 274/9/3
f 276/1/3 266/1/3 275/1/3
f 277/9/3 268/9/3 267/9/3
f 277/9/3 270/9/3 269/9/3
f 277/9/3 269/9/3 268/9/3
f 278/9/3 270/9/3 277/9/3
f 279/5/3 272/5/3 271/5/3
f 280/5/3 272/5/3 279/5/3
f 285/9/3 282/9/3 281/9/3
f 286/2/3 283/2/3 282/2/3
f 286/9/3 282/9/3 285/9/3
f 287/7/3 284/7/3 283/7/3
f 287/2/3 283/2/3 286/2/3
f 288/7/3 284/7/3 287/7/3
f 291/2/3 290/2/3 289/2/3
f 292/2/3 290/2/3 291/2/3
f 293/4/4 294/4/4 295/4/4
f 295/4/4 294/4/4 296/4/4
f 297/2/4 298/2/4 299/2/4
f 299/2/4 298/2/4 300/2/4
f 301/9/4 302/9/4 305/9/4
f 302/2/4 303/2/4 306/2/4
f 305/9/4 302/9/4 306/9/4
f 303/7/4 304/7/4 307/7/4
f 306/2/4 303/2/4 307/2/4
f 307/7/4 304/7/4 308/7/4
f 309/5/4 310/5/4 313/5/4
f 313/5/4 310/5/4 314/5/4
f 311/7/4 312/7/4 319/7/4
f 312/5/4 313/5/4 320/5/4
f 319/7/4 312/7/4 320/7/4
f 313/5/4 314/5/4 320/5/4
f 314/2/4 315/2/4 321/2/4
f 320/5/4 314/5/4 321/5/4
f 321/2/4 315/2/4 322/2/4
f 316/9/4 317/9/4 323/9/4
f 317/1/4 318/1/4 324/1/4
f 323/9/4 317/9/4 324/9/4
f 324/1/4 318/1/4 325/1/4
f 326/7/4 327/7/4 334/7/4
f 327/5/4 328/5/4 335/5/4
f 334/7/4 327/7/4 335/7/4
f 335/5/4 328/5/4 336/5/4
f 336/5/4 328/5/4 337/5/4
f 328/2/4 329/2/4 338/2/4
f 337/5/4 328/5/4 338/5/4
f 338/2/4 329/2/4 339/2/4
f 330/9/4 331/9/4 340/9/4
f 331/1/4 332/1/4 341/1/4
f 340/9/4 331/9/4 341/9/4
f 341/1/4 332/1/4 342/1/4
f 333/9/4 334/9/4 343/9/4
f 334/9/4 335/9/4 343/9/4
f 343/9/4 335/9/4 344/9/4
f 345/2/4 346/2/4 350/2/4
f 347/7/4 348/7/4 356/7/4
f 356/7/4 348/7/4 357/7/4
f 348/5/4 349/5/4 358/5/4
f 357/7/4 348/7/4 358/7/4
f 349/2/4 350/2/4 359/2/4
f 358/5/4 349/5/4 359/5/4
f 350/2/4 346/2/4 360/2/4
f 359/2/4 350/2/4 360/2/4
f 351/9/4 352/9/4 361/9/4
f 352/1/4 353/1/4 362/1/4
f 361/9/4 352/9/4 362/9/4
f 362/1/4 353/1/4 363/1/4
f 354/9/4 355/9/4 364/9/4
f 355/2/4 356/2/4 365/2/4
f 364/9/4 355/9/4 365/9/4
f 356/7/4 357/7/4 366/7/4
f 365/2/4 356/2/4 366/2/4
f 366/7/4 357/7/4 367/7/4
f 360/2/4 346/2/4 368/2/4
f 368/2/4 346/2/4 369/2/4
f 372/2/4 373/2/4 374/2/4
f 374/2/4 373/2/4 375/2/4
f 370/1/4 371/1/4 376/1/4
f 376/1/4 371/1/4 377/1/4
f 380/9/5 379/9/5 378/9/5
f 381/9/5 379/9/5 380/9/5
f 384/9/5 383/9/5 382/9/5
f 385/9/5 383/9/5 384/9/5
f 388/7/5 387/7/5 386/7/5
f 391/7/5 387/7/5 388/7/5
f 392/9/5 390/9/5 389/9/5
f 393/9/5 390/9/5 392/9/5
f 394/7/5 391/7/5 388/7/5
f 395/7/5 391/7/5 394/7/5
f 400/7/5 397/7/5 396/7/5
f 401/7/5 397/7/5 400/7/5
f 402/7/5 399/7/5 398/7/5
f 403/7/5 399/7/5 402/7/5
f 406/9/5 405/9/5 404/9/5
f 407/9/5 405/9/5 406/9/5
f 408/2/5 407/2/5 406/2/5
f 409/2/5 407/2/5 408/2/5
f 413/4/5 411/4/5 410/4/5
f 414/4/5 411/4/5 413/4/5
f 417/4/5 413/4/5 412/4/5
f 417/4/5 415/4/5 414/4/5
f 417/4/5 414/4/5 413/4/5
f 418/4/5 415/4/5 417/4/5
f 419/4/5 415/4/5 418/4/5
f 420/2/5 417/2/5 416/2/5
f 420/2/5 418/2/5 417/2/5
f 421/2/5 418/2/5 420/2/5
f 422/2/5 418/2/5 421/2/5
f 423/4/5 422/4/5 421/4/5
f 424/4/5 422/4/5 423/4/5
f 425/2/5 420/2/5 416/2/5
f 426/2/5 420/2/5 425/2/5
f 429/5/5 426/5/5 425/5/5
f 430/5/5 426/5/5 429/5/5
f 431/5/5 428/5/5 427/5/5
f 432/5/5 428/5/5 431/5/5
f 433/2/5 432/2/5 431/2/5
f 434/2/5 432/2/5 433/2/5
f 439/10/5 436/10/5 435/10/5
f 440/10/5 436/10/5 439/10/5
f 441/10/5 438/10/5 437/10/5
f 442/10/5 438/10/5 441/10/5
f 447/2/5 444/2/5 443/2/5
f 448/2/5 444/2/5 447/2/5
f 449/2/5 446/2/5 445/2/5
f 450/2/5 446/2/5 449/2/5
f 453/1/5 452/1/5 451/1/5
f 454/1/5 452/1/5 453/1/5
f 455/1/5 452/1/5 454/1/5
f 456/1/5 452/1/5 455/1/5
f 457/1/5 453/1/5 451/1/5
f 458/1/5 452/1/5 456/1/5
f 459/1/5 457/1/5 451/1/5
f 460/1/5 452/1/5 458/1/5
f 461/1/5 459/1/5 451/1/5
f 461/1/5 460/1/5 459/1/5
f 462/1/5 452/1/5 460/1/5
f 462/1/5 460/1/5 461/1/5
f 463/7/6 464/7/6 465/7/6
f 465/7/6 464/7/6 466/7/6
f 467/7/6 468/7/6 469/7/6
f 469/7/6 468/7/6 470/7/6
f 471/9/6 472/9/6 473/9/6
f 473/9/6 472/9/6 474/9/6
f 474/9/6 472/9/6 475/9/6
f 476/4/6 477/4/6 479/4/6
f 479/4/6 477/4/6 480/4/6
f 478/4/6 479/4/6 483/4/6
f 480/4/6 481/4/6 483/4/6
f 479/4/6 480/4/6 483/4/6
f 483/4/6 481/4/6 484/4/6
f 484/4/6 481/4/6 485/4/6
f 482/2/6 483/2/6 486/2/6
f 483/2/6 484/2/6 486/2/6
f 486/2/6 484/2/6 487/2/6
f 487/2/6 484/2/6 488/2/6
f 487/4/6 488/4/6 489/4/6
f 489/4/6 488/4/6 490/4/6
f 482/2/6 486/2/6 491/2/6
f 491/2/6 486/2/6 492/2/6
f 491/5/6 492/5/6 495/5/6
f 495/5/6 492/5/6 496/5/6
f 493/5/6 494/5/6 497/5/6
f 497/5/6 494/5/6 498/5/6
f 497/2/6 498/2/6 499/2/6
f 499/2/6 498/2/6 500/2/6
f 501/1/6 502/1/6 503/1/6
f 503/1/6 502/1/6 504/1/6
f 501/1/6 503/1/6 505/1/6
f 505/1/6 503/1/6 506/1/6
f 504/1/6 502/1/6 507/1/6
f 507/1/6 502/1/6 508/1/6
f 501/1/6 505/1/6 509/1/6
f 508/1/6 502/1/6 512/1/6
f 509/1/6 510/1/6 513/1/6
f 511/1/6 512/1/6 514/1/6
f 509/1/6 513/1/6 515/1/6
f 513/1/6 514/1/6 515/1/6
f 501/1/6 509/1/6 515/1/6
f 514/1/6 512/1/6 516/1/6
f 515/1/6 514/1/6 516/1/6
f 512/1/6 502/1/6 516/1/6
f 517/1/6 518/1/6 520/1/6
f 520/1/6 518/1/6 521/1/6
f 519/1/6 520/1/6 523/1/6
f 521/1/6 522/1/6 523/1/6
f 520/1/6 521/1/6 523/1/6
f 523/1/6 522/1/6 524/1/6
f 524/1/6 522/1/6 525/1/6
f 525/1/6 522/1/6 526/1/6
f 524/1/6 525/1/6 527/1/6
f 527/1/6 525/1/6 528/1/6
