# MagicaVoxel @ Ephtracy

# material
mtllib take_dmg.mtl
usemtl palette

# normals
vn -1 0 0
vn 1 0 0
vn 0 0 1
vn 0 0 -1
vn 0 -1 0
vn 0 1 0

# texcoords
vt 0.00976563 0.5
vt 0.201172 0.5
vt 0.208984 0.5
vt 0.501953 0.5
vt 0.537109 0.5
vt 0.830078 0.5
vt 0.833984 0.5
vt 0.931641 0.5
vt 0.990234 0.5
vt 0.994141 0.5

# verts
v -10 9 0.5
v -10 9 -0.5
v -10 10 0.5
v -10 10 -0.5
v -6 8 0.5
v -6 8 -0.5
v -6 9 0.5
v -6 9 -0.5
v -6 10 0.5
v -6 10 -0.5
v -6 11 0.5
v -6 11 -0.5
v -5 7 0.5
v -5 7 -0.5
v -5 8 0.5
v -5 8 -0.5
v -3 10 2.5
v -3 10 0.5
v -3 10 -0.5
v -3 10 -2.5
v -3 11 2.5
v -3 11 -2.5
v -2 0 0.5
v -2 0 -0.5
v -2 1 0.5
v -2 1 -0.5
v -2 3 1.5
v -2 3 0.5
v -2 3 -0.5
v -2 3 -1.5
v -2 5 1.5
v -2 5 -1.5
v -2 7 0.5
v -2 7 -0.5
v -2 8 1.5
v -2 8 0.5
v -2 8 -0.5
v -2 8 -1.5
v -2 9 1.5
v -2 9 0.5
v -2 10 1.5
v -2 10 0.5
v -2 10 -1.5
v -2 11 0.5
v -2 11 -0.5
v -2 12 0.5
v -2 12 -0.5
v -2 13 0.5
v -2 13 -0.5
v -1 11 1.5
v -1 11 0.5
v -1 11 -0.5
v -1 11 -1.5
v -1 12 1.5
v -1 12 0.5
v -1 12 -0.5
v -1 12 -1.5
v -1 13 1.5
v -1 13 0.5
v -1 13 -0.5
v -1 13 -1.5
v 1 0 0.5
v 1 0 -0.5
v 1 1 0.5
v 1 1 -0.5
v 1 3 0.5
v 1 3 -0.5
v 3 9 0.5
v 3 9 -0.5
v 3 10 0.5
v 3 10 -0.5
v 3 11 0.5
v 3 11 -0.5
v 3 12 0.5
v 3 12 -0.5
v 4 8 0.5
v 4 8 -0.5
v 4 9 0.5
v 4 9 -0.5
v -5 10 0.5
v -5 10 -0.5
v -5 11 0.5
v -5 11 -0.5
v -4 8 0.5
v -4 8 -0.5
v -4 9 0.5
v -4 9 -0.5
v -3 9 0.5
v -3 9 -0.5
v -3 10 0.5
v -3 10 -0.5
v -1 0 0.5
v -1 0 -0.5
v -1 1 0.5
v -1 1 -0.5
v -1 3 0.5
v -1 3 -0.5
v 1 11 1.5
v 1 11 0.5
v 1 11 -0.5
v 1 11 -1.5
v 1 12 1.5
v 1 12 0.5
v 1 12 -0.5
v 1 12 -1.5
v 1 13 1.5
v 1 13 0.5
v 1 13 -0.5
v 1 13 -1.5
v 2 0 0.5
v 2 0 -0.5
v 2 1 0.5
v 2 1 -0.5
v 2 3 1.5
v 2 3 0.5
v 2 3 -0.5
v 2 3 -1.5
v 2 5 1.5
v 2 5 -1.5
v 2 7 0.5
v 2 7 -0.5
v 2 8 1.5
v 2 8 0.5
v 2 8 -0.5
v 2 8 -1.5
v 2 9 1.5
v 2 9 0.5
v 2 10 1.5
v 2 10 0.5
v 2 10 -1.5
v 2 11 0.5
v 2 11 -0.5
v 2 12 0.5
v 2 12 -0.5
v 2 13 0.5
v 2 13 -0.5
v 3 10 2.5
v 3 10 0.5
v 3 10 -0.5
v 3 10 -2.5
v 3 11 2.5
v 3 11 0.5
v 3 11 -0.5
v 3 11 -2.5
v 4 10 0.5
v 4 10 -0.5
v 4 12 0.5
v 4 12 -0.5
v 5 7 0.5
v 5 7 -0.5
v 5 10 0.5
v 5 10 -0.5
v -3 10 2.5
v -3 11 2.5
v 3 10 2.5
v 3 11 2.5
v -2 3 1.5
v -2 5 1.5
v -2 8 1.5
v -2 9 1.5
v -2 10 1.5
v -1 9 1.5
v -1 10 1.5
v -1 11 1.5
v -1 12 1.5
v -1 13 1.5
v 1 9 1.5
v 1 10 1.5
v 1 11 1.5
v 1 12 1.5
v 1 13 1.5
v 2 3 1.5
v 2 5 1.5
v 2 8 1.5
v 2 9 1.5
v 2 10 1.5
v -10 9 0.5
v -10 10 0.5
v -6 8 0.5
v -6 9 0.5
v -6 10 0.5
v -6 11 0.5
v -5 7 0.5
v -5 8 0.5
v -5 10 0.5
v -5 11 0.5
v -4 8 0.5
v -4 9 0.5
v -4 10 0.5
v -3 7 0.5
v -3 8 0.5
v -3 9 0.5
v -3 10 0.5
v -2 0 0.5
v -2 1 0.5
v -2 3 0.5
v -2 7 0.5
v -2 8 0.5
v -2 11 0.5
v -2 12 0.5
v -2 13 0.5
v -1 0 0.5
v -1 1 0.5
v -1 3 0.5
v -1 11 0.5
v -1 12 0.5
v -1 13 0.5
v 1 0 0.5
v 1 1 0.5
v 1 3 0.5
v 1 11 0.5
v 1 12 0.5
v 1 13 0.5
v 2 0 0.5
v 2 1 0.5
v 2 3 0.5
v 2 7 0.5
v 2 8 0.5
v 2 11 0.5
v 2 12 0.5
v 2 13 0.5
v 3 7 0.5
v 3 8 0.5
v 3 9 0.5
v 3 10 0.5
v 3 11 0.5
v 3 12 0.5
v 4 8 0.5
v 4 9 0.5
v 4 10 0.5
v 4 12 0.5
v 5 7 0.5
v 5 10 0.5
v -10 9 -0.5
v -10 10 -0.5
v -6 8 -0.5
v -6 9 -0.5
v -6 10 -0.5
v -6 11 -0.5
v -5 7 -0.5
v -5 8 -0.5
v -5 10 -0.5
v -5 11 -0.5
v -4 8 -0.5
v -4 9 -0.5
v -4 10 -0.5
v -3 7 -0.5
v -3 8 -0.5
v -3 9 -0.5
v -3 10 -0.5
v -2 0 -0.5
v -2 1 -0.5
v -2 3 -0.5
v -2 7 -0.5
v -2 8 -0.5
v -2 11 -0.5
v -2 12 -0.5
v -2 13 -0.5
v -1 0 -0.5
v -1 1 -0.5
v -1 3 -0.5
v -1 11 -0.5
v -1 12 -0.5
v -1 13 -0.5
v 1 0 -0.5
v 1 1 -0.5
v 1 3 -0.5
v 1 11 -0.5
v 1 12 -0.5
v 1 13 -0.5
v 2 0 -0.5
v 2 1 -0.5
v 2 3 -0.5
v 2 7 -0.5
v 2 8 -0.5
v 2 11 -0.5
v 2 12 -0.5
v 2 13 -0.5
v 3 7 -0.5
v 3 8 -0.5
v 3 9 -0.5
v 3 10 -0.5
v 3 11 -0.5
v 3 12 -0.5
v 4 8 -0.5
v 4 9 -0.5
v 4 10 -0.5
v 4 12 -0.5
v 5 7 -0.5
v 5 10 -0.5
v -2 3 -1.5
v -2 5 -1.5
v -2 8 -1.5
v -2 10 -1.5
v -1 11 -1.5
v -1 12 -1.5
v -1 13 -1.5
v 1 11 -1.5
v 1 12 -1.5
v 1 13 -1.5
v 2 3 -1.5
v 2 5 -1.5
v 2 8 -1.5
v 2 10 -1.5
v -3 10 -2.5
v -3 11 -2.5
v 3 10 -2.5
v 3 11 -2.5
v -2 0 0.5
v -1 0 0.5
v 1 0 0.5
v 2 0 0.5
v -2 0 -0.5
v -1 0 -0.5
v 1 0 -0.5
v 2 0 -0.5
v -2 3 1.5
v 2 3 1.5
v -2 3 0.5
v -1 3 0.5
v 1 3 0.5
v 2 3 0.5
v -2 3 -0.5
v -1 3 -0.5
v 1 3 -0.5
v 2 3 -0.5
v -2 3 -1.5
v 2 3 -1.5
v -5 7 0.5
v -3 7 0.5
v -2 7 0.5
v 2 7 0.5
v 3 7 0.5
v 5 7 0.5
v -5 7 -0.5
v -3 7 -0.5
v -2 7 -0.5
v 2 7 -0.5
v 3 7 -0.5
v 5 7 -0.5
v -6 8 0.5
v -5 8 0.5
v -6 8 -0.5
v -5 8 -0.5
v -10 9 0.5
v -6 9 0.5
v -4 9 0.5
v -3 9 0.5
v 3 9 0.5
v 4 9 0.5
v -10 9 -0.5
v -6 9 -0.5
v -4 9 -0.5
v -3 9 -0.5
v 3 9 -0.5
v 4 9 -0.5
v -3 10 2.5
v 3 10 2.5
v -2 10 1.5
v -1 10 1.5
v 1 10 1.5
v 2 10 1.5
v -3 10 0.5
v -2 10 0.5
v 2 10 0.5
v 3 10 0.5
v -3 10 -0.5
v 3 10 -0.5
v -2 10 -1.5
v 2 10 -1.5
v -3 10 -2.5
v 3 10 -2.5
v -4 8 0.5
v -3 8 0.5
v -2 8 0.5
v 2 8 0.5
v 3 8 0.5
v 4 8 0.5
v -4 8 -0.5
v -3 8 -0.5
v -2 8 -0.5
v 2 8 -0.5
v 3 8 -0.5
v 4 8 -0.5
v -10 10 0.5
v -6 10 0.5
v -5 10 0.5
v -4 10 0.5
v -3 10 0.5
v 4 10 0.5
v 5 10 0.5
v -10 10 -0.5
v -6 10 -0.5
v -5 10 -0.5
v -4 10 -0.5
v -3 10 -0.5
v 4 10 -0.5
v 5 10 -0.5
v -3 11 2.5
v 3 11 2.5
v -1 11 1.5
v 1 11 1.5
v -6 11 0.5
v -5 11 0.5
v -2 11 0.5
v -1 11 0.5
v 1 11 0.5
v 2 11 0.5
v 3 11 0.5
v -6 11 -0.5
v -5 11 -0.5
v -2 11 -0.5
v -1 11 -0.5
v 1 11 -0.5
v 2 11 -0.5
v 3 11 -0.5
v -1 11 -1.5
v 1 11 -1.5
v -3 11 -2.5
v 3 11 -2.5
v 3 12 0.5
v 4 12 0.5
v 3 12 -0.5
v 4 12 -0.5
v -1 13 1.5
v 1 13 1.5
v -2 13 0.5
v -1 13 0.5
v 1 13 0.5
v 2 13 0.5
v -2 13 -0.5
v -1 13 -0.5
v 1 13 -0.5
v 2 13 -0.5
v -1 13 -1.5
v 1 13 -1.5

# faces
f 3/4/1 2/4/1 1/4/1
f 4/4/1 2/4/1 3/4/1
f 7/4/1 6/4/1 5/4/1
f 8/4/1 6/4/1 7/4/1
f 11/4/1 10/4/1 9/4/1
f 12/4/1 10/4/1 11/4/1
f 15/2/1 14/2/1 13/2/1
f 16/2/1 14/2/1 15/2/1
f 21/1/1 18/1/1 17/1/1
f 21/1/1 20/1/1 19/1/1
f 21/1/1 19/1/1 18/1/1
f 22/1/1 20/1/1 21/1/1
f 25/9/1 24/9/1 23/9/1
f 26/9/1 24/9/1 25/9/1
f 28/2/1 26/2/1 25/2/1
f 29/2/1 26/2/1 28/2/1
f 31/7/1 29/7/1 28/7/1
f 31/7/1 30/7/1 29/7/1
f 31/7/1 28/7/1 27/7/1
f 32/7/1 30/7/1 31/7/1
f 33/5/1 32/5/1 31/5/1
f 34/5/1 32/5/1 33/5/1
f 35/5/1 33/5/1 31/5/1
f 36/5/1 33/5/1 35/5/1
f 37/5/1 32/5/1 34/5/1
f 38/5/1 32/5/1 37/5/1
f 39/2/1 36/2/1 35/2/1
f 39/2/1 37/2/1 36/2/1
f 39/2/1 38/2/1 37/2/1
f 40/2/1 38/2/1 39/2/1
f 41/10/1 40/10/1 39/10/1
f 42/2/1 38/2/1 40/2/1
f 42/10/1 40/10/1 41/10/1
f 43/2/1 38/2/1 42/2/1
f 46/9/1 45/9/1 44/9/1
f 47/9/1 45/9/1 46/9/1
f 48/1/1 47/1/1 46/1/1
f 49/1/1 47/1/1 48/1/1
f 54/9/1 51/9/1 50/9/1
f 55/9/1 51/9/1 54/9/1
f 56/9/1 53/9/1 52/9/1
f 57/9/1 53/9/1 56/9/1
f 58/1/1 55/1/1 54/1/1
f 59/1/1 55/1/1 58/1/1
f 60/1/1 57/1/1 56/1/1
f 61/1/1 57/1/1 60/1/1
f 64/9/1 63/9/1 62/9/1
f 65/9/1 63/9/1 64/9/1
f 66/2/1 65/2/1 64/2/1
f 67/2/1 65/2/1 66/2/1
f 70/9/1 69/9/1 68/9/1
f 71/9/1 69/9/1 70/9/1
f 74/9/1 73/9/1 72/9/1
f 75/9/1 73/9/1 74/9/1
f 78/2/1 77/2/1 76/2/1
f 79/2/1 77/2/1 78/2/1
f 80/4/2 81/4/2 82/4/2
f 82/4/2 81/4/2 83/4/2
f 84/2/2 85/2/2 86/2/2
f 86/2/2 85/2/2 87/2/2
f 88/4/2 89/4/2 90/4/2
f 90/4/2 89/4/2 91/4/2
f 92/9/2 93/9/2 94/9/2
f 94/9/2 93/9/2 95/9/2
f 94/2/2 95/2/2 96/2/2
f 96/2/2 95/2/2 97/2/2
f 98/9/2 99/9/2 102/9/2
f 102/9/2 99/9/2 103/9/2
f 100/9/2 101/9/2 104/9/2
f 104/9/2 101/9/2 105/9/2
f 102/1/2 103/1/2 106/1/2
f 106/1/2 103/1/2 107/1/2
f 104/1/2 105/1/2 108/1/2
f 108/1/2 105/1/2 109/1/2
f 110/9/2 111/9/2 112/9/2
f 112/9/2 111/9/2 113/9/2
f 112/2/2 113/2/2 115/2/2
f 115/2/2 113/2/2 116/2/2
f 115/7/2 116/7/2 118/7/2
f 116/7/2 117/7/2 118/7/2
f 114/7/2 115/7/2 118/7/2
f 118/7/2 117/7/2 119/7/2
f 118/5/2 119/5/2 120/5/2
f 120/5/2 119/5/2 121/5/2
f 118/5/2 120/5/2 122/5/2
f 122/5/2 120/5/2 123/5/2
f 121/5/2 119/5/2 124/5/2
f 124/5/2 119/5/2 125/5/2
f 122/2/2 123/2/2 126/2/2
f 123/2/2 124/2/2 126/2/2
f 124/2/2 125/2/2 126/2/2
f 126/2/2 125/2/2 127/2/2
f 126/10/2 127/10/2 128/10/2
f 127/2/2 125/2/2 129/2/2
f 128/10/2 127/10/2 129/10/2
f 129/2/2 125/2/2 130/2/2
f 131/9/2 132/9/2 133/9/2
f 133/9/2 132/9/2 134/9/2
f 133/1/2 134/1/2 135/1/2
f 135/1/2 134/1/2 136/1/2
f 137/1/2 138/1/2 141/1/2
f 141/1/2 138/1/2 142/1/2
f 139/1/2 140/1/2 143/1/2
f 143/1/2 140/1/2 144/1/2
f 145/9/2 146/9/2 147/9/2
f 147/9/2 146/9/2 148/9/2
f 149/2/2 150/2/2 151/2/2
f 151/2/2 150/2/2 152/2/2
f 155/1/3 154/1/3 153/1/3
f 156/1/3 154/1/3 155/1/3
f 162/2/3 160/2/3 159/2/3
f 162/10/3 161/10/3 160/10/3
f 163/10/3 161/10/3 162/10/3
f 167/2/3 162/2/3 159/2/3
f 167/2/3 163/2/3 162/2/3
f 168/2/3 163/2/3 167/2/3
f 169/9/3 165/9/3 164/9/3
f 170/1/3 166/1/3 165/1/3
f 170/9/3 165/9/3 169/9/3
f 171/1/3 166/1/3 170/1/3
f 172/7/3 158/7/3 157/7/3
f 173/5/3 159/5/3 158/5/3
f 173/7/3 158/7/3 172/7/3
f 174/2/3 167/2/3 159/2/3
f 174/5/3 159/5/3 173/5/3
f 175/10/3 168/10/3 167/10/3
f 175/2/3 167/2/3 174/2/3
f 176/10/3 168/10/3 175/10/3
f 180/4/3 178/4/3 177/4/3
f 181/4/3 178/4/3 180/4/3
f 184/4/3 180/4/3 179/4/3
f 184/4/3 182/4/3 181/4/3
f 184/4/3 181/4/3 180/4/3
f 185/4/3 182/4/3 184/4/3
f 186/4/3 182/4/3 185/4/3
f 187/2/3 184/2/3 183/2/3
f 187/2/3 185/2/3 184/2/3
f 188/2/3 185/2/3 187/2/3
f 189/2/3 185/2/3 188/2/3
f 190/2/3 187/2/3 183/2/3
f 191/2/3 187/2/3 190/2/3
f 192/4/3 189/4/3 188/4/3
f 193/4/3 189/4/3 192/4/3
f 197/5/3 191/5/3 190/5/3
f 198/5/3 191/5/3 197/5/3
f 202/9/3 195/9/3 194/9/3
f 203/2/3 196/2/3 195/2/3
f 203/9/3 195/9/3 202/9/3
f 204/2/3 196/2/3 203/2/3
f 205/9/3 200/9/3 199/9/3
f 206/1/3 201/1/3 200/1/3
f 206/9/3 200/9/3 205/9/3
f 207/1/3 201/1/3 206/1/3
f 214/9/3 209/9/3 208/9/3
f 215/2/3 210/2/3 209/2/3
f 215/9/3 209/9/3 214/9/3
f 216/2/3 210/2/3 215/2/3
f 219/9/3 212/9/3 211/9/3
f 220/1/3 213/1/3 212/1/3
f 220/9/3 212/9/3 219/9/3
f 221/1/3 213/1/3 220/1/3
f 222/5/3 218/5/3 217/5/3
f 223/5/3 218/5/3 222/5/3
f 228/2/3 223/2/3 222/2/3
f 229/9/3 227/9/3 226/9/3
f 229/9/3 225/9/3 224/9/3
f 229/9/3 226/9/3 225/9/3
f 230/9/3 227/9/3 229/9/3
f 231/9/3 227/9/3 230/9/3
f 232/2/3 228/2/3 222/2/3
f 232/2/3 229/2/3 228/2/3
f 232/2/3 230/2/3 229/2/3
f 233/2/3 230/2/3 232/2/3
f 234/4/4 235/4/4 237/4/4
f 237/4/4 235/4/4 238/4/4
f 236/4/4 237/4/4 241/4/4
f 238/4/4 239/4/4 241/4/4
f 237/4/4 238/4/4 241/4/4
f 241/4/4 239/4/4 242/4/4
f 242/4/4 239/4/4 243/4/4
f 240/2/4 241/2/4 244/2/4
f 241/2/4 242/2/4 244/2/4
f 244/2/4 242/2/4 245/2/4
f 245/2/4 242/2/4 246/2/4
f 240/2/4 244/2/4 247/2/4
f 247/2/4 244/2/4 248/2/4
f 245/4/4 246/4/4 249/4/4
f 249/4/4 246/4/4 250/4/4
f 247/5/4 248/5/4 254/5/4
f 254/5/4 248/5/4 255/5/4
f 251/9/4 252/9/4 259/9/4
f 252/2/4 253/2/4 260/2/4
f 259/9/4 252/9/4 260/9/4
f 260/2/4 253/2/4 261/2/4
f 256/9/4 257/9/4 262/9/4
f 257/1/4 258/1/4 263/1/4
f 262/9/4 257/9/4 263/9/4
f 263/1/4 258/1/4 264/1/4
f 265/9/4 266/9/4 271/9/4
f 266/2/4 267/2/4 272/2/4
f 271/9/4 266/9/4 272/9/4
f 272/2/4 267/2/4 273/2/4
f 268/9/4 269/9/4 276/9/4
f 269/1/4 270/1/4 277/1/4
f 276/9/4 269/9/4 277/9/4
f 277/1/4 270/1/4 278/1/4
f 274/5/4 275/5/4 279/5/4
f 279/5/4 275/5/4 280/5/4
f 279/2/4 280/2/4 285/2/4
f 283/9/4 284/9/4 286/9/4
f 281/9/4 282/9/4 286/9/4
f 282/9/4 283/9/4 286/9/4
f 286/9/4 284/9/4 287/9/4
f 287/9/4 284/9/4 288/9/4
f 279/2/4 285/2/4 289/2/4
f 285/2/4 286/2/4 289/2/4
f 286/2/4 287/2/4 289/2/4
f 289/2/4 287/2/4 290/2/4
f 295/9/4 296/9/4 298/9/4
f 296/1/4 297/1/4 299/1/4
f 298/9/4 296/9/4 299/9/4
f 299/1/4 297/1/4 300/1/4
f 291/7/4 292/7/4 301/7/4
f 292/5/4 293/5/4 302/5/4
f 301/7/4 292/7/4 302/7/4
f 293/2/4 294/2/4 303/2/4
f 302/5/4 293/5/4 303/5/4
f 303/2/4 294/2/4 304/2/4
f 305/1/4 306/1/4 307/1/4
f 307/1/4 306/1/4 308/1/4
f 313/9/5 310/9/5 309/9/5
f 314/9/5 310/9/5 313/9/5
f 315/9/5 312/9/5 311/9/5
f 316/9/5 312/9/5 315/9/5
f 319/7/5 318/7/5 317/7/5
f 320/7/5 318/7/5 319/7/5
f 321/7/5 318/7/5 320/7/5
f 322/7/5 318/7/5 321/7/5
f 324/7/5 321/7/5 320/7/5
f 325/7/5 321/7/5 324/7/5
f 327/7/5 324/7/5 323/7/5
f 327/7/5 326/7/5 325/7/5
f 327/7/5 325/7/5 324/7/5
f 328/7/5 326/7/5 327/7/5
f 335/2/5 330/2/5 329/2/5
f 336/5/5 331/5/5 330/5/5
f 336/2/5 330/2/5 335/2/5
f 337/5/5 331/5/5 336/5/5
f 338/5/5 333/5/5 332/5/5
f 339/2/5 334/2/5 333/2/5
f 339/5/5 333/5/5 338/5/5
f 340/2/5 334/2/5 339/2/5
f 343/4/5 342/4/5 341/4/5
f 344/4/5 342/4/5 343/4/5
f 351/4/5 346/4/5 345/4/5
f 352/4/5 346/4/5 351/4/5
f 353/4/5 348/4/5 347/4/5
f 354/4/5 348/4/5 353/4/5
f 355/9/5 350/9/5 349/9/5
f 356/9/5 350/9/5 355/9/5
f 359/1/5 358/1/5 357/1/5
f 360/1/5 358/1/5 359/1/5
f 361/1/5 358/1/5 360/1/5
f 362/1/5 358/1/5 361/1/5
f 363/1/5 359/1/5 357/1/5
f 364/1/5 359/1/5 363/1/5
f 365/1/5 358/1/5 362/1/5
f 366/1/5 358/1/5 365/1/5
f 367/1/5 364/1/5 363/1/5
f 368/1/5 366/1/5 365/1/5
f 369/1/5 364/1/5 367/1/5
f 370/1/5 368/1/5 365/1/5
f 371/1/5 369/1/5 367/1/5
f 371/1/5 370/1/5 369/1/5
f 372/1/5 368/1/5 370/1/5
f 372/1/5 370/1/5 371/1/5
f 373/2/6 374/2/6 379/2/6
f 374/5/6 375/5/6 380/5/6
f 379/2/6 374/2/6 380/2/6
f 380/5/6 375/5/6 381/5/6
f 376/5/6 377/5/6 382/5/6
f 377/2/6 378/2/6 383/2/6
f 382/5/6 377/5/6 383/5/6
f 383/2/6 378/2/6 384/2/6
f 385/4/6 386/4/6 392/4/6
f 392/4/6 386/4/6 393/4/6
f 387/2/6 388/2/6 394/2/6
f 388/4/6 389/4/6 395/4/6
f 394/2/6 388/2/6 395/2/6
f 395/4/6 389/4/6 396/4/6
f 390/2/6 391/2/6 397/2/6
f 397/2/6 391/2/6 398/2/6
f 399/1/6 400/1/6 401/1/6
f 401/1/6 400/1/6 402/1/6
f 399/1/6 401/1/6 405/1/6
f 405/1/6 401/1/6 406/1/6
f 402/1/6 400/1/6 407/1/6
f 407/1/6 400/1/6 408/1/6
f 408/1/6 400/1/6 409/1/6
f 403/4/6 404/4/6 410/4/6
f 410/4/6 404/4/6 411/4/6
f 399/1/6 405/1/6 412/1/6
f 408/1/6 409/1/6 415/1/6
f 415/1/6 409/1/6 416/1/6
f 412/1/6 413/1/6 417/1/6
f 415/1/6 416/1/6 418/1/6
f 414/1/6 415/1/6 418/1/6
f 412/1/6 417/1/6 419/1/6
f 417/1/6 418/1/6 419/1/6
f 399/1/6 412/1/6 419/1/6
f 418/1/6 416/1/6 420/1/6
f 419/1/6 418/1/6 420/1/6
f 421/9/6 422/9/6 423/9/6
f 423/9/6 422/9/6 424/9/6
f 425/1/6 426/1/6 428/1/6
f 428/1/6 426/1/6 429/1/6
f 427/1/6 428/1/6 431/1/6
f 429/1/6 430/1/6 431/1/6
f 428/1/6 429/1/6 431/1/6
f 431/1/6 430/1/6 432/1/6
f 432/1/6 430/1/6 433/1/6
f 433/1/6 430/1/6 434/1/6
f 432/1/6 433/1/6 435/1/6
f 435/1/6 433/1/6 436/1/6
