# MagicaVoxel @ Ephtracy

# material
mtllib ground.mtl
usemtl palette

# normals
vn -1 0 0
vn 1 0 0
vn 0 0 1
vn 0 0 -1
vn 0 -1 0
vn 0 1 0

# texcoords
vt 0.205078 0.5
vt 0.369141 0.5
vt 0.392578 0.5
vt 0.537109 0.5
vt 0.869141 0.5

# verts
v -15 0 15
v -15 0 -15
v -15 9 15
v -15 9 -15
v -15 10 15
v -15 10 -15
v 15 0 15
v 15 0 -15
v 15 9 15
v 15 9 -15
v 15 10 15
v 15 10 -15
v -15 0 15
v -15 9 15
v -15 10 15
v 15 0 15
v 15 9 15
v 15 10 15
v -15 0 -15
v -15 9 -15
v -15 10 -15
v 15 0 -15
v 15 9 -15
v 15 10 -15
v -15 0 15
v 15 0 15
v -15 0 -15
v 15 0 -15
v -15 10 15
v 15 10 15
v -14 10 14
v 14 10 14
v -5 10 10
v 5 10 10
v -6 10 9
v -5 10 9
v 5 10 9
v 6 10 9
v -7 10 8
v -6 10 8
v -5 10 8
v 5 10 8
v 6 10 8
v 7 10 8
v -8 10 7
v -7 10 7
v -6 10 7
v 6 10 7
v 7 10 7
v 8 10 7
v -9 10 6
v -8 10 6
v -7 10 6
v -2 10 6
v 2 10 6
v 7 10 6
v 8 10 6
v 9 10 6
v -10 10 5
v -9 10 5
v -8 10 5
v -4 10 5
v -2 10 5
v 2 10 5
v 4 10 5
v 8 10 5
v 9 10 5
v 10 10 5
v -5 10 4
v -4 10 4
v -2 10 4
v 2 10 4
v 4 10 4
v 5 10 4
v -6 10 2
v -5 10 2
v -4 10 2
v -1 10 2
v 1 10 2
v 4 10 2
v 5 10 2
v 6 10 2
v -2 10 1
v -1 10 1
v 1 10 1
v 2 10 1
v -2 10 -1
v -1 10 -1
v 1 10 -1
v 2 10 -1
v -6 10 -2
v -5 10 -2
v -4 10 -2
v -1 10 -2
v 1 10 -2
v 4 10 -2
v 5 10 -2
v 6 10 -2
v -5 10 -4
v -4 10 -4
v -2 10 -4
v 2 10 -4
v 4 10 -4
v 5 10 -4
v -10 10 -5
v -9 10 -5
v -8 10 -5
v -4 10 -5
v -2 10 -5
v 2 10 -5
v 4 10 -5
v 8 10 -5
v 9 10 -5
v 10 10 -5
v -9 10 -6
v -8 10 -6
v -7 10 -6
v -2 10 -6
v 2 10 -6
v 7 10 -6
v 8 10 -6
v 9 10 -6
v -8 10 -7
v -7 10 -7
v -6 10 -7
v 6 10 -7
v 7 10 -7
v 8 10 -7
v -7 10 -8
v -6 10 -8
v -5 10 -8
v 5 10 -8
v 6 10 -8
v 7 10 -8
v -6 10 -9
v -5 10 -9
v 5 10 -9
v 6 10 -9
v -5 10 -10
v 5 10 -10
v -14 10 -14
v 14 10 -14
v -15 10 -15
v 15 10 -15

# faces
f 3/2/1 2/2/1 1/2/1
f 4/2/1 2/2/1 3/2/1
f 5/4/1 4/4/1 3/4/1
f 6/4/1 4/4/1 5/4/1
f 7/2/2 8/2/2 9/2/2
f 9/2/2 8/2/2 10/2/2
f 9/4/2 10/4/2 11/4/2
f 11/4/2 10/4/2 12/4/2
f 16/2/3 14/2/3 13/2/3
f 17/4/3 15/4/3 14/4/3
f 17/2/3 14/2/3 16/2/3
f 18/4/3 15/4/3 17/4/3
f 19/2/4 20/2/4 22/2/4
f 20/4/4 21/4/4 23/4/4
f 22/2/4 20/2/4 23/2/4
f 23/4/4 21/4/4 24/4/4
f 27/2/5 26/2/5 25/2/5
f 28/2/5 26/2/5 27/2/5
f 29/4/6 30/4/6 31/4/6
f 31/4/6 30/4/6 32/4/6
f 31/2/6 32/2/6 33/2/6
f 33/2/6 32/2/6 34/2/6
f 31/2/6 33/2/6 35/2/6
f 33/4/6 34/4/6 36/4/6
f 35/2/6 33/2/6 36/2/6
f 34/2/6 32/2/6 37/2/6
f 36/4/6 34/4/6 37/4/6
f 37/2/6 32/2/6 38/2/6
f 31/2/6 35/2/6 39/2/6
f 35/4/6 36/4/6 40/4/6
f 39/2/6 35/2/6 40/2/6
f 36/2/6 37/2/6 41/2/6
f 40/4/6 36/4/6 41/4/6
f 37/4/6 38/4/6 42/4/6
f 41/2/6 37/2/6 42/2/6
f 38/2/6 32/2/6 43/2/6
f 42/4/6 38/4/6 43/4/6
f 43/2/6 32/2/6 44/2/6
f 31/2/6 39/2/6 45/2/6
f 39/4/6 40/4/6 46/4/6
f 45/2/6 39/2/6 46/2/6
f 41/2/6 42/2/6 47/2/6
f 46/4/6 40/4/6 47/4/6
f 40/2/6 41/2/6 47/2/6
f 42/2/6 43/2/6 47/2/6
f 43/4/6 44/4/6 48/4/6
f 47/2/6 43/2/6 48/2/6
f 44/2/6 32/2/6 49/2/6
f 48/4/6 44/4/6 49/4/6
f 49/2/6 32/2/6 50/2/6
f 31/2/6 45/2/6 51/2/6
f 45/4/6 46/4/6 52/4/6
f 51/2/6 45/2/6 52/2/6
f 47/2/6 48/2/6 53/2/6
f 52/4/6 46/4/6 53/4/6
f 46/2/6 47/2/6 53/2/6
f 48/2/6 49/2/6 53/2/6
f 53/2/6 49/2/6 54/2/6
f 54/2/6 49/2/6 55/2/6
f 49/4/6 50/4/6 56/4/6
f 55/2/6 49/2/6 56/2/6
f 50/2/6 32/2/6 57/2/6
f 56/4/6 50/4/6 57/4/6
f 57/2/6 32/2/6 58/2/6
f 31/2/6 51/2/6 59/2/6
f 51/4/6 52/4/6 60/4/6
f 59/2/6 51/2/6 60/2/6
f 52/2/6 53/2/6 61/2/6
f 60/4/6 52/4/6 61/4/6
f 53/2/6 54/2/6 61/2/6
f 61/2/6 54/2/6 62/2/6
f 54/4/6 55/4/6 63/4/6
f 62/2/6 54/2/6 63/2/6
f 55/2/6 56/2/6 64/2/6
f 63/4/6 55/4/6 64/4/6
f 56/2/6 57/2/6 64/2/6
f 64/2/6 57/2/6 65/2/6
f 57/4/6 58/4/6 66/4/6
f 65/2/6 57/2/6 66/2/6
f 58/2/6 32/2/6 67/2/6
f 66/4/6 58/4/6 67/4/6
f 67/2/6 32/2/6 68/2/6
f 61/2/6 62/2/6 69/2/6
f 60/2/6 61/2/6 69/2/6
f 62/4/6 63/4/6 70/4/6
f 69/2/6 62/2/6 70/2/6
f 63/1/6 64/1/6 71/1/6
f 70/4/6 63/4/6 71/4/6
f 64/4/6 65/4/6 72/4/6
f 71/1/6 64/1/6 72/1/6
f 65/2/6 66/2/6 73/2/6
f 72/4/6 65/4/6 73/4/6
f 66/2/6 67/2/6 73/2/6
f 73/2/6 67/2/6 74/2/6
f 60/2/6 69/2/6 75/2/6
f 69/4/6 70/4/6 76/4/6
f 75/2/6 69/2/6 76/2/6
f 71/1/6 72/1/6 77/1/6
f 76/4/6 70/4/6 77/4/6
f 70/1/6 71/1/6 77/1/6
f 72/1/6 73/1/6 77/1/6
f 77/1/6 73/1/6 78/1/6
f 78/1/6 73/1/6 79/1/6
f 73/4/6 74/4/6 80/4/6
f 79/1/6 73/1/6 80/1/6
f 74/2/6 67/2/6 81/2/6
f 80/4/6 74/4/6 81/4/6
f 81/2/6 67/2/6 82/2/6
f 76/1/6 77/1/6 83/1/6
f 77/1/6 78/1/6 83/1/6
f 78/4/6 79/4/6 84/4/6
f 83/1/6 78/1/6 84/1/6
f 79/1/6 80/1/6 85/1/6
f 84/4/6 79/4/6 85/4/6
f 80/1/6 81/1/6 85/1/6
f 85/1/6 81/1/6 86/1/6
f 83/4/6 84/4/6 87/4/6
f 76/1/6 83/1/6 87/1/6
f 85/4/6 86/4/6 87/4/6
f 84/4/6 85/4/6 87/4/6
f 87/4/6 86/4/6 88/4/6
f 88/4/6 86/4/6 89/4/6
f 86/1/6 81/1/6 90/1/6
f 89/4/6 86/4/6 90/4/6
f 75/4/6 76/4/6 91/4/6
f 60/2/6 75/2/6 91/2/6
f 76/1/6 87/1/6 92/1/6
f 91/4/6 76/4/6 92/4/6
f 87/1/6 88/1/6 92/1/6
f 92/1/6 88/1/6 93/1/6
f 88/4/6 89/4/6 94/4/6
f 93/1/6 88/1/6 94/1/6
f 89/1/6 90/1/6 95/1/6
f 94/4/6 89/4/6 95/4/6
f 90/1/6 81/1/6 96/1/6
f 95/1/6 90/1/6 96/1/6
f 81/4/6 82/4/6 97/4/6
f 96/1/6 81/1/6 97/1/6
f 82/2/6 67/2/6 98/2/6
f 97/4/6 82/4/6 98/4/6
f 92/4/6 93/4/6 99/4/6
f 91/2/6 92/2/6 99/2/6
f 94/1/6 95/1/6 100/1/6
f 99/4/6 93/4/6 100/4/6
f 95/1/6 96/1/6 100/1/6
f 93/1/6 94/1/6 100/1/6
f 100/1/6 96/1/6 101/1/6
f 101/1/6 96/1/6 102/1/6
f 96/4/6 97/4/6 103/4/6
f 102/1/6 96/1/6 103/1/6
f 97/2/6 98/2/6 104/2/6
f 103/4/6 97/4/6 104/4/6
f 31/2/6 59/2/6 105/2/6
f 59/4/6 60/4/6 105/4/6
f 91/2/6 99/2/6 106/2/6
f 105/4/6 60/4/6 106/4/6
f 60/2/6 91/2/6 106/2/6
f 99/2/6 100/2/6 106/2/6
f 106/2/6 100/2/6 107/2/6
f 100/4/6 101/4/6 108/4/6
f 107/2/6 100/2/6 108/2/6
f 101/1/6 102/1/6 109/1/6
f 108/4/6 101/4/6 109/4/6
f 102/4/6 103/4/6 110/4/6
f 109/1/6 102/1/6 110/1/6
f 103/2/6 104/2/6 111/2/6
f 110/4/6 103/4/6 111/4/6
f 104/2/6 98/2/6 112/2/6
f 111/2/6 104/2/6 112/2/6
f 98/2/6 67/2/6 112/2/6
f 67/4/6 68/4/6 113/4/6
f 112/2/6 67/2/6 113/2/6
f 68/2/6 32/2/6 114/2/6
f 113/4/6 68/4/6 114/4/6
f 105/2/6 106/2/6 115/2/6
f 106/4/6 107/4/6 115/4/6
f 108/2/6 109/2/6 116/2/6
f 115/4/6 107/4/6 116/4/6
f 107/2/6 108/2/6 116/2/6
f 116/2/6 109/2/6 117/2/6
f 109/4/6 110/4/6 118/4/6
f 117/2/6 109/2/6 118/2/6
f 110/2/6 111/2/6 119/2/6
f 118/4/6 110/4/6 119/4/6
f 111/2/6 112/2/6 119/2/6
f 119/2/6 112/2/6 120/2/6
f 112/4/6 113/4/6 121/4/6
f 120/2/6 112/2/6 121/2/6
f 113/2/6 114/2/6 122/2/6
f 121/4/6 113/4/6 122/4/6
f 116/4/6 117/4/6 123/4/6
f 115/2/6 116/2/6 123/2/6
f 117/2/6 118/2/6 124/2/6
f 123/4/6 117/4/6 124/4/6
f 119/2/6 120/2/6 124/2/6
f 118/2/6 119/2/6 124/2/6
f 124/2/6 120/2/6 125/2/6
f 125/2/6 120/2/6 126/2/6
f 120/4/6 121/4/6 127/4/6
f 126/2/6 120/2/6 127/2/6
f 121/2/6 122/2/6 128/2/6
f 127/4/6 121/4/6 128/4/6
f 123/2/6 124/2/6 129/2/6
f 124/4/6 125/4/6 129/4/6
f 125/2/6 126/2/6 130/2/6
f 129/4/6 125/4/6 130/4/6
f 130/2/6 126/2/6 131/2/6
f 131/2/6 126/2/6 132/2/6
f 126/4/6 127/4/6 133/4/6
f 132/2/6 126/2/6 133/2/6
f 127/2/6 128/2/6 134/2/6
f 133/4/6 127/4/6 134/4/6
f 129/2/6 130/2/6 135/2/6
f 130/4/6 131/4/6 135/4/6
f 131/2/6 132/2/6 136/2/6
f 135/4/6 131/4/6 136/4/6
f 132/4/6 133/4/6 137/4/6
f 136/2/6 132/2/6 137/2/6
f 133/2/6 134/2/6 138/2/6
f 137/4/6 133/4/6 138/4/6
f 135/2/6 136/2/6 139/2/6
f 136/4/6 137/4/6 139/4/6
f 137/2/6 138/2/6 140/2/6
f 139/4/6 137/4/6 140/4/6
f 29/4/6 31/4/6 141/4/6
f 115/2/6 123/2/6 141/2/6
f 139/2/6 140/2/6 141/2/6
f 135/2/6 139/2/6 141/2/6
f 31/2/6 105/2/6 141/2/6
f 123/2/6 129/2/6 141/2/6
f 105/2/6 115/2/6 141/2/6
f 129/2/6 135/2/6 141/2/6
f 140/2/6 138/2/6 142/2/6
f 141/2/6 140/2/6 142/2/6
f 32/4/6 30/4/6 142/4/6
f 122/2/6 114/2/6 142/2/6
f 128/2/6 122/2/6 142/2/6
f 114/2/6 32/2/6 142/2/6
f 138/2/6 134/2/6 142/2/6
f 134/2/6 128/2/6 142/2/6
f 29/4/6 141/4/6 143/4/6
f 141/4/6 142/4/6 143/4/6
f 142/4/6 30/4/6 144/4/6
f 143/4/6 142/4/6 144/4/6
