# MagicaVoxel @ Ephtracy

# material
mtllib ground2.mtl
usemtl palette

# normals
vn -1 0 0
vn 1 0 0
vn 0 0 1
vn 0 0 -1
vn 0 -1 0
vn 0 1 0

# texcoords
vt 0.205078 0.5
vt 0.369141 0.5
vt 0.392578 0.5
vt 0.537109 0.5
vt 0.869141 0.5

# verts
v -15 0 15
v -15 0 -15
v -15 9 15
v -15 9 -15
v -15 10 15
v -15 10 -15
v 15 0 15
v 15 0 -15
v 15 9 15
v 15 9 -15
v 15 10 15
v 15 10 -15
v -15 0 15
v -15 9 15
v -15 10 15
v 15 0 15
v 15 9 15
v 15 10 15
v -15 0 -15
v -15 9 -15
v -15 10 -15
v 15 0 -15
v 15 9 -15
v 15 10 -15
v -15 0 15
v 15 0 15
v -15 0 -15
v 15 0 -15
v -15 10 15
v 15 10 15
v -14 10 14
v 14 10 14
v -14 10 -14
v 14 10 -14
v -15 10 -15
v 15 10 -15

# faces
f 3/2/1 2/2/1 1/2/1
f 4/2/1 2/2/1 3/2/1
f 5/4/1 4/4/1 3/4/1
f 6/4/1 4/4/1 5/4/1
f 7/2/2 8/2/2 9/2/2
f 9/2/2 8/2/2 10/2/2
f 9/4/2 10/4/2 11/4/2
f 11/4/2 10/4/2 12/4/2
f 16/2/3 14/2/3 13/2/3
f 17/4/3 15/4/3 14/4/3
f 17/2/3 14/2/3 16/2/3
f 18/4/3 15/4/3 17/4/3
f 19/2/4 20/2/4 22/2/4
f 20/4/4 21/4/4 23/4/4
f 22/2/4 20/2/4 23/2/4
f 23/4/4 21/4/4 24/4/4
f 27/2/5 26/2/5 25/2/5
f 28/2/5 26/2/5 27/2/5
f 29/4/6 30/4/6 31/4/6
f 31/4/6 30/4/6 32/4/6
f 29/4/6 31/4/6 33/4/6
f 31/2/6 32/2/6 33/2/6
f 32/4/6 30/4/6 34/4/6
f 33/2/6 32/2/6 34/2/6
f 29/4/6 33/4/6 35/4/6
f 33/4/6 34/4/6 35/4/6
f 34/4/6 30/4/6 36/4/6
f 35/4/6 34/4/6 36/4/6
