# MagicaVoxel @ Ephtracy

# material
mtllib wall.mtl
usemtl palette

# normals
vn -1 0 0
vn 1 0 0
vn 0 0 1
vn 0 0 -1
vn 0 -1 0
vn 0 1 0

# texcoords
vt 0.205078 0.5
vt 0.369141 0.5
vt 0.533203 0.5
vt 0.537109 0.5
vt 0.869141 0.5

# verts
v -15 0 20
v -15 0 -20
v -15 9 20
v -15 9 -6
v -15 10 20
v -15 10 -6
v -15 10 -10
v -15 11 -6
v -15 11 -7
v -15 11 -10
v -15 11 -11
v -15 13 -7
v -15 13 -8
v -15 15 -8
v -15 15 -9
v -15 26 -8
v -15 26 -9
v -15 28 -7
v -15 28 -8
v -15 28 -11
v -15 28 -20
v -15 30 -7
v -15 30 -20
v -6 18 -10
v -6 18 -11
v -6 22 -10
v -6 22 -11
v -5 16 -10
v -5 16 -11
v -5 18 -10
v -5 18 -11
v -5 22 -10
v -5 22 -11
v -5 24 -10
v -5 24 -11
v -4 15 -10
v -4 15 -11
v -4 16 -10
v -4 16 -11
v -4 24 -10
v -4 24 -11
v -4 25 -10
v -4 25 -11
v -2 14 -10
v -2 14 -11
v -2 15 -10
v -2 15 -11
v -2 19 -10
v -2 19 -11
v -2 21 -10
v -2 21 -11
v -2 25 -10
v -2 25 -11
v -2 26 -10
v -2 26 -11
v -1 18 -10
v -1 18 -11
v -1 19 -10
v -1 19 -11
v -1 21 -10
v -1 21 -11
v -1 22 -10
v -1 22 -11
v 2 15 -10
v 2 15 -11
v 2 16 -10
v 2 16 -11
v 2 24 -10
v 2 24 -11
v 2 25 -10
v 2 25 -11
v 4 16 -10
v 4 16 -11
v 4 18 -10
v 4 18 -11
v 4 22 -10
v 4 22 -11
v 4 24 -10
v 4 24 -11
v 5 18 -10
v 5 18 -11
v 5 22 -10
v 5 22 -11
v 12 10 -7
v 12 10 -8
v 12 11 -7
v 12 11 -8
v 12 11 -9
v 12 11 -10
v 12 13 -9
v 12 13 -10
v 12 13 -11
v 12 15 -10
v 12 15 -11
v 12 26 -10
v 12 26 -11
v 12 28 -9
v 12 28 -10
v 12 28 -11
v 12 30 -9
v 12 30 -10
v 13 10 -6
v 13 10 -7
v 13 11 -6
v 13 11 -7
v 13 11 -8
v 13 11 -9
v 13 13 -8
v 13 13 -9
v 13 13 -10
v 13 15 -9
v 13 15 -10
v 13 15 -11
v 13 26 -9
v 13 26 -10
v 13 26 -11
v 13 28 -8
v 13 28 -9
v 13 28 -10
v 13 30 -8
v 13 30 -9
v 14 11 -7
v 14 11 -8
v 14 13 -7
v 14 13 -8
v 14 13 -9
v 14 15 -8
v 14 15 -9
v 14 15 -10
v 14 26 -8
v 14 26 -9
v 14 26 -10
v 14 28 -7
v 14 28 -8
v 14 28 -9
v 14 30 -7
v 14 30 -8
v -14 11 -7
v -14 11 -8
v -14 13 -7
v -14 13 -8
v -14 13 -9
v -14 15 -8
v -14 15 -9
v -14 15 -10
v -14 26 -8
v -14 26 -9
v -14 26 -10
v -14 28 -7
v -14 28 -8
v -14 28 -9
v -14 30 -7
v -14 30 -8
v -13 10 -6
v -13 10 -7
v -13 11 -6
v -13 11 -7
v -13 11 -8
v -13 11 -9
v -13 13 -8
v -13 13 -9
v -13 13 -10
v -13 15 -9
v -13 15 -10
v -13 15 -11
v -13 26 -9
v -13 26 -10
v -13 26 -11
v -13 28 -8
v -13 28 -9
v -13 28 -10
v -13 30 -8
v -13 30 -9
v -12 10 -7
v -12 10 -8
v -12 11 -7
v -12 11 -8
v -12 11 -9
v -12 11 -10
v -12 13 -9
v -12 13 -10
v -12 13 -11
v -12 15 -10
v -12 15 -11
v -12 26 -10
v -12 26 -11
v -12 28 -9
v -12 28 -10
v -12 28 -11
v -12 30 -9
v -12 30 -10
v -5 18 -10
v -5 18 -11
v -5 22 -10
v -5 22 -11
v -4 16 -10
v -4 16 -11
v -4 18 -10
v -4 18 -11
v -4 22 -10
v -4 22 -11
v -4 24 -10
v -4 24 -11
v -2 15 -10
v -2 15 -11
v -2 16 -10
v -2 16 -11
v -2 24 -10
v -2 24 -11
v -2 25 -10
v -2 25 -11
v 1 18 -10
v 1 18 -11
v 1 19 -10
v 1 19 -11
v 1 21 -10
v 1 21 -11
v 1 22 -10
v 1 22 -11
v 2 14 -10
v 2 14 -11
v 2 15 -10
v 2 15 -11
v 2 19 -10
v 2 19 -11
v 2 21 -10
v 2 21 -11
v 2 25 -10
v 2 25 -11
v 2 26 -10
v 2 26 -11
v 4 15 -10
v 4 15 -11
v 4 16 -10
v 4 16 -11
v 4 24 -10
v 4 24 -11
v 4 25 -10
v 4 25 -11
v 5 16 -10
v 5 16 -11
v 5 18 -10
v 5 18 -11
v 5 22 -10
v 5 22 -11
v 5 24 -10
v 5 24 -11
v 6 18 -10
v 6 18 -11
v 6 22 -10
v 6 22 -11
v 15 0 20
v 15 0 -20
v 15 9 20
v 15 9 -6
v 15 10 20
v 15 10 -6
v 15 10 -10
v 15 11 -6
v 15 11 -7
v 15 11 -10
v 15 11 -11
v 15 13 -7
v 15 13 -8
v 15 15 -8
v 15 15 -9
v 15 26 -8
v 15 26 -9
v 15 28 -7
v 15 28 -8
v 15 28 -11
v 15 28 -20
v 15 30 -7
v 15 30 -20
v -15 0 20
v -15 9 20
v -15 10 20
v 15 0 20
v 15 9 20
v 15 10 20
v -15 10 -6
v -15 11 -6
v -14 10 -6
v -13 10 -6
v -13 11 -6
v 13 10 -6
v 13 11 -6
v 14 10 -6
v 15 10 -6
v 15 11 -6
v -15 11 -7
v -15 13 -7
v -15 28 -7
v -15 30 -7
v -14 11 -7
v -14 13 -7
v -14 28 -7
v -14 30 -7
v -13 10 -7
v -13 11 -7
v -12 10 -7
v -12 11 -7
v 12 10 -7
v 12 11 -7
v 13 10 -7
v 13 11 -7
v 14 11 -7
v 14 13 -7
v 14 28 -7
v 14 30 -7
v 15 11 -7
v 15 13 -7
v 15 28 -7
v 15 30 -7
v -15 13 -8
v -15 15 -8
v -15 26 -8
v -15 28 -8
v -14 11 -8
v -14 13 -8
v -14 15 -8
v -14 26 -8
v -14 28 -8
v -14 30 -8
v -13 11 -8
v -13 13 -8
v -13 28 -8
v -13 30 -8
v -12 10 -8
v -12 11 -8
v 12 10 -8
v 12 11 -8
v 13 11 -8
v 13 13 -8
v 13 28 -8
v 13 30 -8
v 14 11 -8
v 14 13 -8
v 14 15 -8
v 14 26 -8
v 14 28 -8
v 14 30 -8
v 15 13 -8
v 15 15 -8
v 15 26 -8
v 15 28 -8
v -15 15 -9
v -15 26 -9
v -14 13 -9
v -14 15 -9
v -14 26 -9
v -14 28 -9
v -13 11 -9
v -13 13 -9
v -13 15 -9
v -13 26 -9
v -13 28 -9
v -13 30 -9
v -12 11 -9
v -12 13 -9
v -12 28 -9
v -12 30 -9
v 12 11 -9
v 12 13 -9
v 12 28 -9
v 12 30 -9
v 13 11 -9
v 13 13 -9
v 13 15 -9
v 13 26 -9
v 13 28 -9
v 13 30 -9
v 14 13 -9
v 14 15 -9
v 14 26 -9
v 14 28 -9
v 15 15 -9
v 15 26 -9
v -14 15 -10
v -14 26 -10
v -13 13 -10
v -13 15 -10
v -13 26 -10
v -13 28 -10
v -12 11 -10
v -12 13 -10
v -12 15 -10
v -12 26 -10
v -12 28 -10
v -12 30 -10
v -6 18 -10
v -6 22 -10
v -5 16 -10
v -5 18 -10
v -5 22 -10
v -5 24 -10
v -4 15 -10
v -4 16 -10
v -4 18 -10
v -4 22 -10
v -4 24 -10
v -4 25 -10
v -2 14 -10
v -2 15 -10
v -2 16 -10
v -2 19 -10
v -2 21 -10
v -2 24 -10
v -2 25 -10
v -2 26 -10
v -1 18 -10
v -1 19 -10
v -1 21 -10
v -1 22 -10
v 1 18 -10
v 1 19 -10
v 1 21 -10
v 1 22 -10
v 2 14 -10
v 2 15 -10
v 2 16 -10
v 2 19 -10
v 2 21 -10
v 2 24 -10
v 2 25 -10
v 2 26 -10
v 4 15 -10
v 4 16 -10
v 4 18 -10
v 4 22 -10
v 4 24 -10
v 4 25 -10
v 5 16 -10
v 5 18 -10
v 5 22 -10
v 5 24 -10
v 6 18 -10
v 6 22 -10
v 12 11 -10
v 12 13 -10
v 12 15 -10
v 12 26 -10
v 12 28 -10
v 12 30 -10
v 13 13 -10
v 13 15 -10
v 13 26 -10
v 13 28 -10
v 14 15 -10
v 14 26 -10
v -13 15 -11
v -13 26 -11
v -12 13 -11
v -12 15 -11
v -12 26 -11
v -12 28 -11
v -6 18 -11
v -6 22 -11
v -5 16 -11
v -5 18 -11
v -5 22 -11
v -5 24 -11
v -4 15 -11
v -4 16 -11
v -4 18 -11
v -4 22 -11
v -4 24 -11
v -4 25 -11
v -2 14 -11
v -2 15 -11
v -2 16 -11
v -2 19 -11
v -2 21 -11
v -2 24 -11
v -2 25 -11
v -2 26 -11
v -1 18 -11
v -1 19 -11
v -1 21 -11
v -1 22 -11
v 1 18 -11
v 1 19 -11
v 1 21 -11
v 1 22 -11
v 2 14 -11
v 2 15 -11
v 2 16 -11
v 2 19 -11
v 2 21 -11
v 2 24 -11
v 2 25 -11
v 2 26 -11
v 4 15 -11
v 4 16 -11
v 4 18 -11
v 4 22 -11
v 4 24 -11
v 4 25 -11
v 5 16 -11
v 5 18 -11
v 5 22 -11
v 5 24 -11
v 6 18 -11
v 6 22 -11
v 12 13 -11
v 12 15 -11
v 12 26 -11
v 12 28 -11
v 13 15 -11
v 13 26 -11
v -15 0 -20
v -15 28 -20
v -15 30 -20
v 15 0 -20
v 15 28 -20
v 15 30 -20
v -15 0 20
v 15 0 20
v -15 0 -20
v 15 0 -20
v -2 14 -10
v 2 14 -10
v -2 14 -11
v 2 14 -11
v -4 15 -10
v -2 15 -10
v 2 15 -10
v 4 15 -10
v -4 15 -11
v -2 15 -11
v 2 15 -11
v 4 15 -11
v -5 16 -10
v -4 16 -10
v 4 16 -10
v 5 16 -10
v -5 16 -11
v -4 16 -11
v 4 16 -11
v 5 16 -11
v -6 18 -10
v -5 18 -10
v -1 18 -10
v 1 18 -10
v 5 18 -10
v 6 18 -10
v -6 18 -11
v -5 18 -11
v -1 18 -11
v 1 18 -11
v 5 18 -11
v 6 18 -11
v -2 19 -10
v -1 19 -10
v 1 19 -10
v 2 19 -10
v -2 19 -11
v -1 19 -11
v 1 19 -11
v 2 19 -11
v -5 22 -10
v -4 22 -10
v 4 22 -10
v 5 22 -10
v -5 22 -11
v -4 22 -11
v 4 22 -11
v 5 22 -11
v -4 24 -10
v -2 24 -10
v 2 24 -10
v 4 24 -10
v -4 24 -11
v -2 24 -11
v 2 24 -11
v 4 24 -11
v -2 25 -10
v 2 25 -10
v -2 25 -11
v 2 25 -11
v -15 26 -8
v -14 26 -8
v 14 26 -8
v 15 26 -8
v -15 26 -9
v -14 26 -9
v -13 26 -9
v 13 26 -9
v 14 26 -9
v 15 26 -9
v -14 26 -10
v -13 26 -10
v -12 26 -10
v 12 26 -10
v 13 26 -10
v 14 26 -10
v -13 26 -11
v -12 26 -11
v 12 26 -11
v 13 26 -11
v -15 28 -7
v -14 28 -7
v 14 28 -7
v 15 28 -7
v -15 28 -8
v -14 28 -8
v -13 28 -8
v 13 28 -8
v 14 28 -8
v 15 28 -8
v -14 28 -9
v -13 28 -9
v -12 28 -9
v 12 28 -9
v 13 28 -9
v 14 28 -9
v -13 28 -10
v -12 28 -10
v 12 28 -10
v 13 28 -10
v -12 28 -11
v 12 28 -11
v -15 10 20
v 15 10 20
v -14 10 19
v 14 10 19
v -15 10 -6
v -14 10 -6
v -13 10 -6
v 13 10 -6
v 14 10 -6
v 15 10 -6
v -13 10 -7
v -12 10 -7
v 12 10 -7
v 13 10 -7
v -12 10 -8
v 12 10 -8
v -15 11 -6
v -13 11 -6
v 13 11 -6
v 15 11 -6
v -15 11 -7
v -14 11 -7
v -13 11 -7
v -12 11 -7
v 12 11 -7
v 13 11 -7
v 14 11 -7
v 15 11 -7
v -14 11 -8
v -13 11 -8
v -12 11 -8
v 12 11 -8
v 13 11 -8
v 14 11 -8
v -13 11 -9
v -12 11 -9
v 12 11 -9
v 13 11 -9
v -12 11 -10
v 12 11 -10
v -15 13 -7
v -14 13 -7
v 14 13 -7
v 15 13 -7
v -15 13 -8
v -14 13 -8
v -13 13 -8
v 13 13 -8
v 14 13 -8
v 15 13 -8
v -14 13 -9
v -13 13 -9
v -12 13 -9
v 12 13 -9
v 13 13 -9
v 14 13 -9
v -13 13 -10
v -12 13 -10
v 12 13 -10
v 13 13 -10
v -12 13 -11
v 12 13 -11
v -15 15 -8
v -14 15 -8
v 14 15 -8
v 15 15 -8
v -15 15 -9
v -14 15 -9
v -13 15 -9
v 13 15 -9
v 14 15 -9
v 15 15 -9
v -14 15 -10
v -13 15 -10
v -12 15 -10
v -2 15 -10
v 2 15 -10
v 12 15 -10
v 13 15 -10
v 14 15 -10
v -13 15 -11
v -12 15 -11
v -2 15 -11
v 2 15 -11
v 12 15 -11
v 13 15 -11
v -4 16 -10
v -2 16 -10
v 2 16 -10
v 4 16 -10
v -4 16 -11
v -2 16 -11
v 2 16 -11
v 4 16 -11
v -5 18 -10
v -4 18 -10
v 4 18 -10
v 5 18 -10
v -5 18 -11
v -4 18 -11
v 4 18 -11
v 5 18 -11
v -2 21 -10
v -1 21 -10
v 1 21 -10
v 2 21 -10
v -2 21 -11
v -1 21 -11
v 1 21 -11
v 2 21 -11
v -6 22 -10
v -5 22 -10
v -1 22 -10
v 1 22 -10
v 5 22 -10
v 6 22 -10
v -6 22 -11
v -5 22 -11
v -1 22 -11
v 1 22 -11
v 5 22 -11
v 6 22 -11
v -5 24 -10
v -4 24 -10
v 4 24 -10
v 5 24 -10
v -5 24 -11
v -4 24 -11
v 4 24 -11
v 5 24 -11
v -4 25 -10
v -2 25 -10
v 2 25 -10
v 4 25 -10
v -4 25 -11
v -2 25 -11
v 2 25 -11
v 4 25 -11
v -2 26 -10
v 2 26 -10
v -2 26 -11
v 2 26 -11
v -15 30 -7
v -14 30 -7
v 14 30 -7
v 15 30 -7
v -14 30 -8
v -13 30 -8
v 13 30 -8
v 14 30 -8
v -13 30 -9
v -12 30 -9
v 12 30 -9
v 13 30 -9
v -12 30 -10
v 12 30 -10
v -15 30 -20
v 15 30 -20

# faces
f 3/2/1 2/2/1 1/2/1
f 4/2/1 2/2/1 3/2/1
f 5/4/1 4/4/1 3/4/1
f 6/2/1 2/2/1 4/2/1
f 6/4/1 4/4/1 5/4/1
f 7/2/1 2/2/1 6/2/1
f 8/4/1 7/4/1 6/4/1
f 9/4/1 7/4/1 8/4/1
f 10/2/1 2/2/1 7/2/1
f 10/4/1 7/4/1 9/4/1
f 11/2/1 2/2/1 10/2/1
f 12/4/1 10/4/1 9/4/1
f 12/4/1 11/4/1 10/4/1
f 13/4/1 11/4/1 12/4/1
f 14/4/1 11/4/1 13/4/1
f 15/4/1 11/4/1 14/4/1
f 17/4/1 11/4/1 15/4/1
f 19/4/1 17/4/1 16/4/1
f 20/2/1 2/2/1 11/2/1
f 20/4/1 11/4/1 17/4/1
f 20/4/1 17/4/1 19/4/1
f 21/2/1 2/2/1 20/2/1
f 22/4/1 19/4/1 18/4/1
f 22/4/1 20/4/1 19/4/1
f 22/4/1 21/4/1 20/4/1
f 23/4/1 21/4/1 22/4/1
f 26/4/1 25/4/1 24/4/1
f 27/4/1 25/4/1 26/4/1
f 30/4/1 29/4/1 28/4/1
f 31/4/1 29/4/1 30/4/1
f 34/4/1 33/4/1 32/4/1
f 35/4/1 33/4/1 34/4/1
f 38/4/1 37/4/1 36/4/1
f 39/4/1 37/4/1 38/4/1
f 42/4/1 41/4/1 40/4/1
f 43/4/1 41/4/1 42/4/1
f 46/4/1 45/4/1 44/4/1
f 47/4/1 45/4/1 46/4/1
f 50/4/1 49/4/1 48/4/1
f 51/4/1 49/4/1 50/4/1
f 54/4/1 53/4/1 52/4/1
f 55/4/1 53/4/1 54/4/1
f 58/4/1 57/4/1 56/4/1
f 59/4/1 57/4/1 58/4/1
f 62/4/1 61/4/1 60/4/1
f 63/4/1 61/4/1 62/4/1
f 66/4/1 65/4/1 64/4/1
f 67/4/1 65/4/1 66/4/1
f 70/4/1 69/4/1 68/4/1
f 71/4/1 69/4/1 70/4/1
f 74/4/1 73/4/1 72/4/1
f 75/4/1 73/4/1 74/4/1
f 78/4/1 77/4/1 76/4/1
f 79/4/1 77/4/1 78/4/1
f 82/4/1 81/4/1 80/4/1
f 83/4/1 81/4/1 82/4/1
f 86/4/1 85/4/1 84/4/1
f 87/4/1 85/4/1 86/4/1
f 90/4/1 89/4/1 88/4/1
f 91/4/1 89/4/1 90/4/1
f 93/4/1 92/4/1 91/4/1
f 94/4/1 92/4/1 93/4/1
f 98/4/1 96/4/1 95/4/1
f 99/4/1 96/4/1 98/4/1
f 100/4/1 98/4/1 97/4/1
f 101/4/1 98/4/1 100/4/1
f 104/4/1 103/4/1 102/4/1
f 105/4/1 103/4/1 104/4/1
f 108/4/1 107/4/1 106/4/1
f 109/4/1 107/4/1 108/4/1
f 111/4/1 110/4/1 109/4/1
f 112/4/1 110/4/1 111/4/1
f 115/4/1 113/4/1 112/4/1
f 116/4/1 113/4/1 115/4/1
f 118/4/1 115/4/1 114/4/1
f 119/4/1 115/4/1 118/4/1
f 120/4/1 118/4/1 117/4/1
f 121/4/1 118/4/1 120/4/1
f 124/4/1 123/4/1 122/4/1
f 125/4/1 123/4/1 124/4/1
f 127/4/1 126/4/1 125/4/1
f 128/4/1 126/4/1 127/4/1
f 131/4/1 129/4/1 128/4/1
f 132/4/1 129/4/1 131/4/1
f 134/4/1 131/4/1 130/4/1
f 135/4/1 131/4/1 134/4/1
f 136/4/1 134/4/1 133/4/1
f 137/4/1 134/4/1 136/4/1
f 138/4/2 139/4/2 140/4/2
f 140/4/2 139/4/2 141/4/2
f 141/4/2 142/4/2 143/4/2
f 143/4/2 142/4/2 144/4/2
f 144/4/2 145/4/2 147/4/2
f 147/4/2 145/4/2 148/4/2
f 146/4/2 147/4/2 150/4/2
f 150/4/2 147/4/2 151/4/2
f 149/4/2 150/4/2 152/4/2
f 152/4/2 150/4/2 153/4/2
f 154/4/2 155/4/2 156/4/2
f 156/4/2 155/4/2 157/4/2
f 158/4/2 159/4/2 160/4/2
f 160/4/2 159/4/2 161/4/2
f 161/4/2 162/4/2 163/4/2
f 163/4/2 162/4/2 164/4/2
f 164/4/2 165/4/2 167/4/2
f 167/4/2 165/4/2 168/4/2
f 166/4/2 167/4/2 170/4/2
f 170/4/2 167/4/2 171/4/2
f 169/4/2 170/4/2 172/4/2
f 172/4/2 170/4/2 173/4/2
f 174/4/2 175/4/2 176/4/2
f 176/4/2 175/4/2 177/4/2
f 178/4/2 179/4/2 180/4/2
f 180/4/2 179/4/2 181/4/2
f 181/4/2 182/4/2 183/4/2
f 183/4/2 182/4/2 184/4/2
f 185/4/2 186/4/2 188/4/2
f 188/4/2 186/4/2 189/4/2
f 187/4/2 188/4/2 190/4/2
f 190/4/2 188/4/2 191/4/2
f 192/4/2 193/4/2 194/4/2
f 194/4/2 193/4/2 195/4/2
f 196/4/2 197/4/2 198/4/2
f 198/4/2 197/4/2 199/4/2
f 200/4/2 201/4/2 202/4/2
f 202/4/2 201/4/2 203/4/2
f 204/4/2 205/4/2 206/4/2
f 206/4/2 205/4/2 207/4/2
f 208/4/2 209/4/2 210/4/2
f 210/4/2 209/4/2 211/4/2
f 212/4/2 213/4/2 214/4/2
f 214/4/2 213/4/2 215/4/2
f 216/4/2 217/4/2 218/4/2
f 218/4/2 217/4/2 219/4/2
f 220/4/2 221/4/2 222/4/2
f 222/4/2 221/4/2 223/4/2
f 224/4/2 225/4/2 226/4/2
f 226/4/2 225/4/2 227/4/2
f 228/4/2 229/4/2 230/4/2
f 230/4/2 229/4/2 231/4/2
f 232/4/2 233/4/2 234/4/2
f 234/4/2 233/4/2 235/4/2
f 236/4/2 237/4/2 238/4/2
f 238/4/2 237/4/2 239/4/2
f 240/4/2 241/4/2 242/4/2
f 242/4/2 241/4/2 243/4/2
f 244/4/2 245/4/2 246/4/2
f 246/4/2 245/4/2 247/4/2
f 248/4/2 249/4/2 250/4/2
f 250/4/2 249/4/2 251/4/2
f 252/2/2 253/2/2 254/2/2
f 254/2/2 253/2/2 255/2/2
f 254/4/2 255/4/2 256/4/2
f 255/2/2 253/2/2 257/2/2
f 256/4/2 255/4/2 257/4/2
f 257/2/2 253/2/2 258/2/2
f 257/4/2 258/4/2 259/4/2
f 259/4/2 258/4/2 260/4/2
f 258/2/2 253/2/2 261/2/2
f 260/4/2 258/4/2 261/4/2
f 261/2/2 253/2/2 262/2/2
f 260/4/2 261/4/2 263/4/2
f 261/4/2 262/4/2 263/4/2
f 263/4/2 262/4/2 264/4/2
f 264/4/2 262/4/2 265/4/2
f 265/4/2 262/4/2 266/4/2
f 266/4/2 262/4/2 268/4/2
f 267/4/2 268/4/2 270/4/2
f 262/2/2 253/2/2 271/2/2
f 268/4/2 262/4/2 271/4/2
f 270/4/2 268/4/2 271/4/2
f 271/2/2 253/2/2 272/2/2
f 269/4/2 270/4/2 273/4/2
f 270/4/2 271/4/2 273/4/2
f 271/4/2 272/4/2 273/4/2
f 273/4/2 272/4/2 274/4/2
f 278/2/3 276/2/3 275/2/3
f 279/4/3 277/4/3 276/4/3
f 279/2/3 276/2/3 278/2/3
f 280/4/3 277/4/3 279/4/3
f 283/4/3 282/4/3 281/4/3
f 284/4/3 282/4/3 283/4/3
f 285/4/3 282/4/3 284/4/3
f 288/4/3 287/4/3 286/4/3
f 289/4/3 287/4/3 288/4/3
f 290/4/3 287/4/3 289/4/3
f 295/4/3 292/4/3 291/4/3
f 296/4/3 292/4/3 295/4/3
f 297/4/3 294/4/3 293/4/3
f 298/4/3 294/4/3 297/4/3
f 301/4/3 300/4/3 299/4/3
f 302/4/3 300/4/3 301/4/3
f 305/4/3 304/4/3 303/4/3
f 306/4/3 304/4/3 305/4/3
f 311/4/3 308/4/3 307/4/3
f 312/4/3 308/4/3 311/4/3
f 313/4/3 310/4/3 309/4/3
f 314/4/3 310/4/3 313/4/3
f 320/4/3 316/4/3 315/4/3
f 321/4/3 316/4/3 320/4/3
f 322/4/3 318/4/3 317/4/3
f 323/4/3 318/4/3 322/4/3
f 325/4/3 320/4/3 319/4/3
f 326/4/3 320/4/3 325/4/3
f 327/4/3 324/4/3 323/4/3
f 328/4/3 324/4/3 327/4/3
f 331/4/3 330/4/3 329/4/3
f 332/4/3 330/4/3 331/4/3
f 337/4/3 334/4/3 333/4/3
f 338/4/3 334/4/3 337/4/3
f 341/4/3 336/4/3 335/4/3
f 342/4/3 336/4/3 341/4/3
f 343/4/3 339/4/3 338/4/3
f 344/4/3 339/4/3 343/4/3
f 345/4/3 341/4/3 340/4/3
f 346/4/3 341/4/3 345/4/3
f 350/4/3 348/4/3 347/4/3
f 351/4/3 348/4/3 350/4/3
f 354/4/3 350/4/3 349/4/3
f 355/4/3 350/4/3 354/4/3
f 356/4/3 352/4/3 351/4/3
f 357/4/3 352/4/3 356/4/3
f 359/4/3 354/4/3 353/4/3
f 360/4/3 354/4/3 359/4/3
f 361/4/3 358/4/3 357/4/3
f 362/4/3 358/4/3 361/4/3
f 367/4/3 364/4/3 363/4/3
f 368/4/3 364/4/3 367/4/3
f 371/4/3 366/4/3 365/4/3
f 372/4/3 366/4/3 371/4/3
f 373/4/3 369/4/3 368/4/3
f 374/4/3 369/4/3 373/4/3
f 375/4/3 371/4/3 370/4/3
f 376/4/3 371/4/3 375/4/3
f 377/4/3 375/4/3 374/4/3
f 378/4/3 375/4/3 377/4/3
f 382/4/3 380/4/3 379/4/3
f 383/4/3 380/4/3 382/4/3
f 386/4/3 382/4/3 381/4/3
f 387/4/3 382/4/3 386/4/3
f 388/4/3 384/4/3 383/4/3
f 389/4/3 384/4/3 388/4/3
f 394/4/3 392/4/3 391/4/3
f 395/4/3 392/4/3 394/4/3
f 398/4/3 394/4/3 393/4/3
f 399/4/3 394/4/3 398/4/3
f 400/4/3 396/4/3 395/4/3
f 401/4/3 396/4/3 400/4/3
f 404/4/3 398/4/3 397/4/3
f 405/4/3 398/4/3 404/4/3
f 408/4/3 402/4/3 401/4/3
f 409/4/3 402/4/3 408/4/3
f 412/4/3 407/4/3 406/4/3
f 413/4/3 407/4/3 412/4/3
f 415/4/3 412/4/3 411/4/3
f 415/4/3 414/4/3 413/4/3
f 415/4/3 413/4/3 412/4/3
f 416/4/3 414/4/3 415/4/3
f 417/4/3 414/4/3 416/4/3
f 418/4/3 414/4/3 417/4/3
f 419/4/3 404/4/3 403/4/3
f 420/4/3 404/4/3 419/4/3
f 422/4/3 417/4/3 416/4/3
f 423/4/3 417/4/3 422/4/3
f 425/4/3 410/4/3 409/4/3
f 426/4/3 410/4/3 425/4/3
f 427/4/3 421/4/3 420/4/3
f 428/4/3 421/4/3 427/4/3
f 431/4/3 425/4/3 424/4/3
f 432/4/3 425/4/3 431/4/3
f 433/4/3 429/4/3 428/4/3
f 434/4/3 429/4/3 433/4/3
f 435/4/3 431/4/3 430/4/3
f 436/4/3 431/4/3 435/4/3
f 437/4/3 435/4/3 434/4/3
f 438/4/3 435/4/3 437/4/3
f 439/4/3 386/4/3 385/4/3
f 440/4/3 386/4/3 439/4/3
f 443/4/3 390/4/3 389/4/3
f 444/4/3 390/4/3 443/4/3
f 445/4/3 441/4/3 440/4/3
f 446/4/3 441/4/3 445/4/3
f 447/4/3 443/4/3 442/4/3
f 448/4/3 443/4/3 447/4/3
f 449/4/3 447/4/3 446/4/3
f 450/4/3 447/4/3 449/4/3
f 454/2/3 452/2/3 451/2/3
f 455/2/3 452/2/3 454/2/3
f 457/2/3 454/2/3 453/2/3
f 457/2/3 456/2/3 455/2/3
f 457/2/3 455/2/3 454/2/3
f 458/2/3 456/2/3 457/2/3
f 459/2/3 457/2/3 453/2/3
f 460/2/3 457/2/3 459/2/3
f 461/2/3 456/2/3 458/2/3
f 462/2/3 456/2/3 461/2/3
f 463/2/3 459/2/3 453/2/3
f 464/2/3 459/2/3 463/2/3
f 465/1/3 461/1/3 460/1/3
f 466/1/3 461/1/3 465/1/3
f 467/2/3 456/2/3 462/2/3
f 468/2/3 456/2/3 467/2/3
f 469/2/3 463/2/3 453/2/3
f 470/2/3 463/2/3 469/2/3
f 471/1/3 466/1/3 465/1/3
f 471/1/3 467/1/3 466/1/3
f 471/1/3 465/1/3 464/1/3
f 472/1/3 467/1/3 471/1/3
f 473/1/3 467/1/3 472/1/3
f 474/1/3 467/1/3 473/1/3
f 475/2/3 456/2/3 468/2/3
f 476/2/3 456/2/3 475/2/3
f 477/1/3 471/1/3 470/1/3
f 477/1/3 472/1/3 471/1/3
f 478/1/3 472/1/3 477/1/3
f 479/1/3 474/1/3 473/1/3
f 479/1/3 475/1/3 474/1/3
f 480/1/3 475/1/3 479/1/3
f 481/1/3 477/1/3 470/1/3
f 484/1/3 475/1/3 480/1/3
f 485/2/3 469/2/3 453/2/3
f 486/1/3 482/1/3 481/1/3
f 486/1/3 481/1/3 470/1/3
f 487/1/3 482/1/3 486/1/3
f 488/1/3 482/1/3 487/1/3
f 489/1/3 484/1/3 483/1/3
f 490/1/3 475/1/3 484/1/3
f 490/1/3 484/1/3 489/1/3
f 491/1/3 475/1/3 490/1/3
f 492/2/3 456/2/3 476/2/3
f 493/2/3 486/2/3 485/2/3
f 494/1/3 488/1/3 487/1/3
f 494/1/3 489/1/3 488/1/3
f 494/1/3 490/1/3 489/1/3
f 495/1/3 490/1/3 494/1/3
f 496/1/3 490/1/3 495/1/3
f 497/1/3 490/1/3 496/1/3
f 498/2/3 492/2/3 491/2/3
f 499/2/3 494/2/3 493/2/3
f 500/1/3 496/1/3 495/1/3
f 501/1/3 496/1/3 500/1/3
f 502/2/3 498/2/3 497/2/3
f 503/2/3 500/2/3 499/2/3
f 504/2/3 502/2/3 501/2/3
f 505/2/3 503/2/3 499/2/3
f 505/2/3 504/2/3 503/2/3
f 505/2/3 485/2/3 453/2/3
f 505/2/3 493/2/3 485/2/3
f 505/2/3 499/2/3 493/2/3
f 506/2/3 504/2/3 505/2/3
f 507/2/3 502/2/3 504/2/3
f 507/2/3 504/2/3 506/2/3
f 507/2/3 456/2/3 492/2/3
f 507/2/3 492/2/3 498/2/3
f 507/2/3 498/2/3 502/2/3
f 508/2/3 456/2/3 507/2/3
f 509/2/3 507/2/3 506/2/3
f 510/2/3 507/2/3 509/2/3
f 511/2/4 512/2/4 514/2/4
f 512/4/4 513/4/4 515/4/4
f 514/2/4 512/2/4 515/2/4
f 515/4/4 513/4/4 516/4/4
f 519/2/5 518/2/5 517/2/5
f 520/2/5 518/2/5 519/2/5
f 523/4/5 522/4/5 521/4/5
f 524/4/5 522/4/5 523/4/5
f 529/4/5 526/4/5 525/4/5
f 530/4/5 526/4/5 529/4/5
f 531/4/5 528/4/5 527/4/5
f 532/4/5 528/4/5 531/4/5
f 537/4/5 534/4/5 533/4/5
f 538/4/5 534/4/5 537/4/5
f 539/4/5 536/4/5 535/4/5
f 540/4/5 536/4/5 539/4/5
f 547/4/5 542/4/5 541/4/5
f 548/4/5 542/4/5 547/4/5
f 549/4/5 544/4/5 543/4/5
f 550/4/5 544/4/5 549/4/5
f 551/4/5 546/4/5 545/4/5
f 552/4/5 546/4/5 551/4/5
f 557/4/5 554/4/5 553/4/5
f 558/4/5 554/4/5 557/4/5
f 559/4/5 556/4/5 555/4/5
f 560/4/5 556/4/5 559/4/5
f 565/4/5 562/4/5 561/4/5
f 566/4/5 562/4/5 565/4/5
f 567/4/5 564/4/5 563/4/5
f 568/4/5 564/4/5 567/4/5
f 573/4/5 570/4/5 569/4/5
f 574/4/5 570/4/5 573/4/5
f 575/4/5 572/4/5 571/4/5
f 576/4/5 572/4/5 575/4/5
f 579/4/5 578/4/5 577/4/5
f 580/4/5 578/4/5 579/4/5
f 585/4/5 582/4/5 581/4/5
f 586/4/5 582/4/5 585/4/5
f 589/4/5 584/4/5 583/4/5
f 590/4/5 584/4/5 589/4/5
f 591/4/5 587/4/5 586/4/5
f 592/4/5 587/4/5 591/4/5
f 595/4/5 589/4/5 588/4/5
f 596/4/5 589/4/5 595/4/5
f 597/4/5 593/4/5 592/4/5
f 598/4/5 593/4/5 597/4/5
f 599/4/5 595/4/5 594/4/5
f 600/4/5 595/4/5 599/4/5
f 605/4/5 602/4/5 601/4/5
f 606/4/5 602/4/5 605/4/5
f 609/4/5 604/4/5 603/4/5
f 610/4/5 604/4/5 609/4/5
f 611/4/5 607/4/5 606/4/5
f 612/4/5 607/4/5 611/4/5
f 615/4/5 609/4/5 608/4/5
f 616/4/5 609/4/5 615/4/5
f 617/4/5 613/4/5 612/4/5
f 618/4/5 613/4/5 617/4/5
f 619/4/5 615/4/5 614/4/5
f 620/4/5 615/4/5 619/4/5
f 621/4/5 619/4/5 618/4/5
f 622/4/5 619/4/5 621/4/5
f 623/4/6 624/4/6 625/4/6
f 625/4/6 624/4/6 626/4/6
f 623/4/6 625/4/6 627/4/6
f 625/2/6 626/2/6 628/2/6
f 627/4/6 625/4/6 628/4/6
f 628/2/6 626/2/6 629/2/6
f 629/2/6 626/2/6 630/2/6
f 626/4/6 624/4/6 631/4/6
f 630/2/6 626/2/6 631/2/6
f 631/4/6 624/4/6 632/4/6
f 629/2/6 630/2/6 633/2/6
f 633/2/6 630/2/6 634/2/6
f 634/2/6 630/2/6 635/2/6
f 635/2/6 630/2/6 636/2/6
f 634/2/6 635/2/6 637/2/6
f 637/2/6 635/2/6 638/2/6
f 639/4/6 640/4/6 643/4/6
f 643/4/6 640/4/6 644/4/6
f 644/4/6 640/4/6 645/4/6
f 641/4/6 642/4/6 648/4/6
f 648/4/6 642/4/6 649/4/6
f 649/4/6 642/4/6 650/4/6
f 645/4/6 646/4/6 651/4/6
f 644/4/6 645/4/6 651/4/6
f 651/4/6 646/4/6 652/4/6
f 652/4/6 646/4/6 653/4/6
f 648/4/6 649/4/6 654/4/6
f 647/4/6 648/4/6 654/4/6
f 654/4/6 649/4/6 655/4/6
f 655/4/6 649/4/6 656/4/6
f 652/4/6 653/4/6 657/4/6
f 654/4/6 655/4/6 657/4/6
f 653/4/6 654/4/6 657/4/6
f 657/4/6 655/4/6 658/4/6
f 658/4/6 655/4/6 659/4/6
f 659/4/6 655/4/6 660/4/6
f 658/4/6 659/4/6 661/4/6
f 661/4/6 659/4/6 662/4/6
f 663/4/6 664/4/6 667/4/6
f 667/4/6 664/4/6 668/4/6
f 665/4/6 666/4/6 671/4/6
f 671/4/6 666/4/6 672/4/6
f 668/4/6 669/4/6 673/4/6
f 673/4/6 669/4/6 674/4/6
f 670/4/6 671/4/6 677/4/6
f 677/4/6 671/4/6 678/4/6
f 674/4/6 675/4/6 679/4/6
f 679/4/6 675/4/6 680/4/6
f 676/4/6 677/4/6 681/4/6
f 681/4/6 677/4/6 682/4/6
f 680/4/6 681/4/6 683/4/6
f 683/4/6 681/4/6 684/4/6
f 685/4/6 686/4/6 689/4/6
f 689/4/6 686/4/6 690/4/6
f 687/4/6 688/4/6 693/4/6
f 693/4/6 688/4/6 694/4/6
f 690/4/6 691/4/6 695/4/6
f 695/4/6 691/4/6 696/4/6
f 692/4/6 693/4/6 701/4/6
f 701/4/6 693/4/6 702/4/6
f 696/4/6 697/4/6 703/4/6
f 703/4/6 697/4/6 704/4/6
f 698/4/6 699/4/6 705/4/6
f 705/4/6 699/4/6 706/4/6
f 700/4/6 701/4/6 707/4/6
f 707/4/6 701/4/6 708/4/6
f 709/4/6 710/4/6 713/4/6
f 713/4/6 710/4/6 714/4/6
f 711/4/6 712/4/6 715/4/6
f 715/4/6 712/4/6 716/4/6
f 717/4/6 718/4/6 721/4/6
f 721/4/6 718/4/6 722/4/6
f 719/4/6 720/4/6 723/4/6
f 723/4/6 720/4/6 724/4/6
f 725/4/6 726/4/6 729/4/6
f 729/4/6 726/4/6 730/4/6
f 727/4/6 728/4/6 731/4/6
f 731/4/6 728/4/6 732/4/6
f 733/4/6 734/4/6 739/4/6
f 739/4/6 734/4/6 740/4/6
f 735/4/6 736/4/6 741/4/6
f 741/4/6 736/4/6 742/4/6
f 737/4/6 738/4/6 743/4/6
f 743/4/6 738/4/6 744/4/6
f 745/4/6 746/4/6 749/4/6
f 749/4/6 746/4/6 750/4/6
f 747/4/6 748/4/6 751/4/6
f 751/4/6 748/4/6 752/4/6
f 753/4/6 754/4/6 757/4/6
f 757/4/6 754/4/6 758/4/6
f 755/4/6 756/4/6 759/4/6
f 759/4/6 756/4/6 760/4/6
f 761/4/6 762/4/6 763/4/6
f 763/4/6 762/4/6 764/4/6
f 765/4/6 766/4/6 769/4/6
f 767/4/6 768/4/6 772/4/6
f 769/4/6 770/4/6 773/4/6
f 771/4/6 772/4/6 776/4/6
f 773/4/6 774/4/6 777/4/6
f 775/4/6 776/4/6 778/4/6
f 773/4/6 777/4/6 779/4/6
f 777/4/6 778/4/6 779/4/6
f 765/4/6 769/4/6 779/4/6
f 769/4/6 773/4/6 779/4/6
f 778/4/6 776/4/6 780/4/6
f 779/4/6 778/4/6 780/4/6
f 772/4/6 768/4/6 780/4/6
f 776/4/6 772/4/6 780/4/6
