# MagicaVoxel @ Ephtracy

# material
mtllib take_dmg.mtl
usemtl palette

# normals
vn -1 0 0
vn 1 0 0
vn 0 0 1
vn 0 0 -1
vn 0 -1 0
vn 0 1 0

# texcoords
vt 0.00976563 0.5
vt 0.201172 0.5
vt 0.208984 0.5
vt 0.501953 0.5
vt 0.537109 0.5
vt 0.830078 0.5
vt 0.833984 0.5
vt 0.931641 0.5
vt 0.990234 0.5
vt 0.994141 0.5

# verts
v -10 9 0.5
v -10 9 -0.5
v -10 10 0.5
v -10 10 -0.5
v -6 8 0.5
v -6 8 -0.5
v -6 9 0.5
v -6 9 -0.5
v -6 10 0.5
v -6 10 -0.5
v -6 11 0.5
v -6 11 -0.5
v -5 7 0.5
v -5 7 -0.5
v -5 8 0.5
v -5 8 -0.5
v -3 10 2.5
v -3 10 0.5
v -3 10 -0.5
v -3 10 -2.5
v -3 11 2.5
v -3 11 -2.5
v -2 0 0.5
v -2 0 -0.5
v -2 1 0.5
v -2 1 -0.5
v -2 3 1.5
v -2 3 0.5
v -2 3 -0.5
v -2 3 -1.5
v -2 4 2.5
v -2 4 1.5
v -2 5 2.5
v -2 5 -1.5
v -2 7 2.5
v -2 7 1.5
v -2 7 0.5
v -2 7 -0.5
v -2 8 1.5
v -2 8 0.5
v -2 8 -0.5
v -2 8 -1.5
v -2 9 1.5
v -2 9 0.5
v -2 10 1.5
v -2 10 0.5
v -2 10 -1.5
v -2 11 0.5
v -2 11 -0.5
v -2 12 0.5
v -2 12 -0.5
v -2 13 0.5
v -2 13 -0.5
v -1 11 1.5
v -1 11 0.5
v -1 11 -0.5
v -1 11 -1.5
v -1 12 1.5
v -1 12 0.5
v -1 12 -0.5
v -1 12 -1.5
v -1 13 1.5
v -1 13 0.5
v -1 13 -0.5
v -1 13 -1.5
v 1 0 0.5
v 1 0 -0.5
v 1 1 0.5
v 1 1 -0.5
v 1 3 0.5
v 1 3 -0.5
v 3 9 0.5
v 3 9 -0.5
v 3 10 0.5
v 3 10 -0.5
v 3 11 0.5
v 3 11 -0.5
v 3 12 0.5
v 3 12 -0.5
v 4 8 0.5
v 4 8 -0.5
v 4 9 0.5
v 4 9 -0.5
v -5 10 0.5
v -5 10 -0.5
v -5 11 0.5
v -5 11 -0.5
v -4 8 0.5
v -4 8 -0.5
v -4 9 0.5
v -4 9 -0.5
v -3 9 0.5
v -3 9 -0.5
v -3 10 0.5
v -3 10 -0.5
v -1 0 0.5
v -1 0 -0.5
v -1 1 0.5
v -1 1 -0.5
v -1 3 0.5
v -1 3 -0.5
v 1 11 1.5
v 1 11 0.5
v 1 11 -0.5
v 1 11 -1.5
v 1 12 1.5
v 1 12 0.5
v 1 12 -0.5
v 1 12 -1.5
v 1 13 1.5
v 1 13 0.5
v 1 13 -0.5
v 1 13 -1.5
v 2 0 0.5
v 2 0 -0.5
v 2 1 0.5
v 2 1 -0.5
v 2 3 1.5
v 2 3 0.5
v 2 3 -0.5
v 2 3 -1.5
v 2 4 2.5
v 2 4 1.5
v 2 5 2.5
v 2 5 -1.5
v 2 7 2.5
v 2 7 1.5
v 2 7 0.5
v 2 7 -0.5
v 2 8 1.5
v 2 8 0.5
v 2 8 -0.5
v 2 8 -1.5
v 2 9 1.5
v 2 9 0.5
v 2 10 1.5
v 2 10 0.5
v 2 10 -1.5
v 2 11 0.5
v 2 11 -0.5
v 2 12 0.5
v 2 12 -0.5
v 2 13 0.5
v 2 13 -0.5
v 3 10 2.5
v 3 10 0.5
v 3 10 -0.5
v 3 10 -2.5
v 3 11 2.5
v 3 11 0.5
v 3 11 -0.5
v 3 11 -2.5
v 4 10 0.5
v 4 10 -0.5
v 4 12 0.5
v 4 12 -0.5
v 5 7 0.5
v 5 7 -0.5
v 5 10 0.5
v 5 10 -0.5
v -3 10 2.5
v -3 11 2.5
v -2 4 2.5
v -2 5 2.5
v -2 7 2.5
v 2 4 2.5
v 2 5 2.5
v 2 7 2.5
v 3 10 2.5
v 3 11 2.5
v -2 3 1.5
v -2 4 1.5
v -2 7 1.5
v -2 8 1.5
v -2 9 1.5
v -2 10 1.5
v -1 9 1.5
v -1 10 1.5
v -1 11 1.5
v -1 12 1.5
v -1 13 1.5
v 1 9 1.5
v 1 10 1.5
v 1 11 1.5
v 1 12 1.5
v 1 13 1.5
v 2 3 1.5
v 2 4 1.5
v 2 7 1.5
v 2 8 1.5
v 2 9 1.5
v 2 10 1.5
v -10 9 0.5
v -10 10 0.5
v -6 8 0.5
v -6 9 0.5
v -6 10 0.5
v -6 11 0.5
v -5 7 0.5
v -5 8 0.5
v -5 10 0.5
v -5 11 0.5
v -4 8 0.5
v -4 9 0.5
v -4 10 0.5
v -3 7 0.5
v -3 8 0.5
v -3 9 0.5
v -3 10 0.5
v -2 0 0.5
v -2 1 0.5
v -2 3 0.5
v -2 7 0.5
v -2 8 0.5
v -2 11 0.5
v -2 12 0.5
v -2 13 0.5
v -1 0 0.5
v -1 1 0.5
v -1 3 0.5
v -1 11 0.5
v -1 12 0.5
v -1 13 0.5
v 1 0 0.5
v 1 1 0.5
v 1 3 0.5
v 1 11 0.5
v 1 12 0.5
v 1 13 0.5
v 2 0 0.5
v 2 1 0.5
v 2 3 0.5
v 2 7 0.5
v 2 8 0.5
v 2 11 0.5
v 2 12 0.5
v 2 13 0.5
v 3 7 0.5
v 3 8 0.5
v 3 9 0.5
v 3 10 0.5
v 3 11 0.5
v 3 12 0.5
v 4 8 0.5
v 4 9 0.5
v 4 10 0.5
v 4 12 0.5
v 5 7 0.5
v 5 10 0.5
v -10 9 -0.5
v -10 10 -0.5
v -6 8 -0.5
v -6 9 -0.5
v -6 10 -0.5
v -6 11 -0.5
v -5 7 -0.5
v -5 8 -0.5
v -5 10 -0.5
v -5 11 -0.5
v -4 8 -0.5
v -4 9 -0.5
v -4 10 -0.5
v -3 7 -0.5
v -3 8 -0.5
v -3 9 -0.5
v -3 10 -0.5
v -2 0 -0.5
v -2 1 -0.5
v -2 3 -0.5
v -2 7 -0.5
v -2 8 -0.5
v -2 11 -0.5
v -2 12 -0.5
v -2 13 -0.5
v -1 0 -0.5
v -1 1 -0.5
v -1 3 -0.5
v -1 11 -0.5
v -1 12 -0.5
v -1 13 -0.5
v 1 0 -0.5
v 1 1 -0.5
v 1 3 -0.5
v 1 11 -0.5
v 1 12 -0.5
v 1 13 -0.5
v 2 0 -0.5
v 2 1 -0.5
v 2 3 -0.5
v 2 7 -0.5
v 2 8 -0.5
v 2 11 -0.5
v 2 12 -0.5
v 2 13 -0.5
v 3 7 -0.5
v 3 8 -0.5
v 3 9 -0.5
v 3 10 -0.5
v 3 11 -0.5
v 3 12 -0.5
v 4 8 -0.5
v 4 9 -0.5
v 4 10 -0.5
v 4 12 -0.5
v 5 7 -0.5
v 5 10 -0.5
v -2 3 -1.5
v -2 5 -1.5
v -2 8 -1.5
v -2 10 -1.5
v -1 11 -1.5
v -1 12 -1.5
v -1 13 -1.5
v 1 11 -1.5
v 1 12 -1.5
v 1 13 -1.5
v 2 3 -1.5
v 2 5 -1.5
v 2 8 -1.5
v 2 10 -1.5
v -3 10 -2.5
v -3 11 -2.5
v 3 10 -2.5
v 3 11 -2.5
v -2 0 0.5
v -1 0 0.5
v 1 0 0.5
v 2 0 0.5
v -2 0 -0.5
v -1 0 -0.5
v 1 0 -0.5
v 2 0 -0.5
v -2 3 1.5
v 2 3 1.5
v -2 3 0.5
v -1 3 0.5
v 1 3 0.5
v 2 3 0.5
v -2 3 -0.5
v -1 3 -0.5
v 1 3 -0.5
v 2 3 -0.5
v -2 3 -1.5
v 2 3 -1.5
v -2 4 2.5
v 2 4 2.5
v -2 4 1.5
v 2 4 1.5
v -5 7 0.5
v -3 7 0.5
v -2 7 0.5
v 2 7 0.5
v 3 7 0.5
v 5 7 0.5
v -5 7 -0.5
v -3 7 -0.5
v -2 7 -0.5
v 2 7 -0.5
v 3 7 -0.5
v 5 7 -0.5
v -6 8 0.5
v -5 8 0.5
v -6 8 -0.5
v -5 8 -0.5
v -10 9 0.5
v -6 9 0.5
v -4 9 0.5
v -3 9 0.5
v 3 9 0.5
v 4 9 0.5
v -10 9 -0.5
v -6 9 -0.5
v -4 9 -0.5
v -3 9 -0.5
v 3 9 -0.5
v 4 9 -0.5
v -3 10 2.5
v 3 10 2.5
v -2 10 1.5
v -1 10 1.5
v 1 10 1.5
v 2 10 1.5
v -3 10 0.5
v -2 10 0.5
v 2 10 0.5
v 3 10 0.5
v -3 10 -0.5
v 3 10 -0.5
v -2 10 -1.5
v 2 10 -1.5
v -3 10 -2.5
v 3 10 -2.5
v -2 7 2.5
v 2 7 2.5
v -2 7 1.5
v 2 7 1.5
v -4 8 0.5
v -3 8 0.5
v -2 8 0.5
v 2 8 0.5
v 3 8 0.5
v 4 8 0.5
v -4 8 -0.5
v -3 8 -0.5
v -2 8 -0.5
v 2 8 -0.5
v 3 8 -0.5
v 4 8 -0.5
v -10 10 0.5
v -6 10 0.5
v -5 10 0.5
v -4 10 0.5
v -3 10 0.5
v 4 10 0.5
v 5 10 0.5
v -10 10 -0.5
v -6 10 -0.5
v -5 10 -0.5
v -4 10 -0.5
v -3 10 -0.5
v 4 10 -0.5
v 5 10 -0.5
v -3 11 2.5
v 3 11 2.5
v -1 11 1.5
v 1 11 1.5
v -6 11 0.5
v -5 11 0.5
v -2 11 0.5
v -1 11 0.5
v 1 11 0.5
v 2 11 0.5
v 3 11 0.5
v -6 11 -0.5
v -5 11 -0.5
v -2 11 -0.5
v -1 11 -0.5
v 1 11 -0.5
v 2 11 -0.5
v 3 11 -0.5
v -1 11 -1.5
v 1 11 -1.5
v -3 11 -2.5
v 3 11 -2.5
v 3 12 0.5
v 4 12 0.5
v 3 12 -0.5
v 4 12 -0.5
v -1 13 1.5
v 1 13 1.5
v -2 13 0.5
v -1 13 0.5
v 1 13 0.5
v 2 13 0.5
v -2 13 -0.5
v -1 13 -0.5
v 1 13 -0.5
v 2 13 -0.5
v -1 13 -1.5
v 1 13 -1.5

# faces
f 3/4/1 2/4/1 1/4/1
f 4/4/1 2/4/1 3/4/1
f 7/4/1 6/4/1 5/4/1
f 8/4/1 6/4/1 7/4/1
f 11/4/1 10/4/1 9/4/1
f 12/4/1 10/4/1 11/4/1
f 15/2/1 14/2/1 13/2/1
f 16/2/1 14/2/1 15/2/1
f 21/1/1 18/1/1 17/1/1
f 21/1/1 20/1/1 19/1/1
f 21/1/1 19/1/1 18/1/1
f 22/1/1 20/1/1 21/1/1
f 25/9/1 24/9/1 23/9/1
f 26/9/1 24/9/1 25/9/1
f 28/2/1 26/2/1 25/2/1
f 29/2/1 26/2/1 28/2/1
f 32/7/1 29/7/1 28/7/1
f 32/7/1 30/7/1 29/7/1
f 32/7/1 28/7/1 27/7/1
f 33/7/1 32/7/1 31/7/1
f 34/7/1 30/7/1 32/7/1
f 34/7/1 32/7/1 33/7/1
f 35/5/1 34/5/1 33/5/1
f 36/5/1 34/5/1 35/5/1
f 37/5/1 34/5/1 36/5/1
f 38/5/1 34/5/1 37/5/1
f 39/5/1 37/5/1 36/5/1
f 40/5/1 37/5/1 39/5/1
f 41/5/1 34/5/1 38/5/1
f 42/5/1 34/5/1 41/5/1
f 43/2/1 40/2/1 39/2/1
f 43/2/1 41/2/1 40/2/1
f 43/2/1 42/2/1 41/2/1
f 44/2/1 42/2/1 43/2/1
f 45/10/1 44/10/1 43/10/1
f 46/2/1 42/2/1 44/2/1
f 46/10/1 44/10/1 45/10/1
f 47/2/1 42/2/1 46/2/1
f 50/9/1 49/9/1 48/9/1
f 51/9/1 49/9/1 50/9/1
f 52/1/1 51/1/1 50/1/1
f 53/1/1 51/1/1 52/1/1
f 58/9/1 55/9/1 54/9/1
f 59/9/1 55/9/1 58/9/1
f 60/9/1 57/9/1 56/9/1
f 61/9/1 57/9/1 60/9/1
f 62/1/1 59/1/1 58/1/1
f 63/1/1 59/1/1 62/1/1
f 64/1/1 61/1/1 60/1/1
f 65/1/1 61/1/1 64/1/1
f 68/9/1 67/9/1 66/9/1
f 69/9/1 67/9/1 68/9/1
f 70/2/1 69/2/1 68/2/1
f 71/2/1 69/2/1 70/2/1
f 74/9/1 73/9/1 72/9/1
f 75/9/1 73/9/1 74/9/1
f 78/9/1 77/9/1 76/9/1
f 79/9/1 77/9/1 78/9/1
f 82/2/1 81/2/1 80/2/1
f 83/2/1 81/2/1 82/2/1
f 84/4/2 85/4/2 86/4/2
f 86/4/2 85/4/2 87/4/2
f 88/2/2 89/2/2 90/2/2
f 90/2/2 89/2/2 91/2/2
f 92/4/2 93/4/2 94/4/2
f 94/4/2 93/4/2 95/4/2
f 96/9/2 97/9/2 98/9/2
f 98/9/2 97/9/2 99/9/2
f 98/2/2 99/2/2 100/2/2
f 100/2/2 99/2/2 101/2/2
f 102/9/2 103/9/2 106/9/2
f 106/9/2 103/9/2 107/9/2
f 104/9/2 105/9/2 108/9/2
f 108/9/2 105/9/2 109/9/2
f 106/1/2 107/1/2 110/1/2
f 110/1/2 107/1/2 111/1/2
f 108/1/2 109/1/2 112/1/2
f 112/1/2 109/1/2 113/1/2
f 114/9/2 115/9/2 116/9/2
f 116/9/2 115/9/2 117/9/2
f 116/2/2 117/2/2 119/2/2
f 119/2/2 117/2/2 120/2/2
f 119/7/2 120/7/2 123/7/2
f 120/7/2 121/7/2 123/7/2
f 118/7/2 119/7/2 123/7/2
f 122/7/2 123/7/2 124/7/2
f 123/7/2 121/7/2 125/7/2
f 124/7/2 123/7/2 125/7/2
f 124/5/2 125/5/2 126/5/2
f 126/5/2 125/5/2 127/5/2
f 127/5/2 125/5/2 128/5/2
f 128/5/2 125/5/2 129/5/2
f 127/5/2 128/5/2 130/5/2
f 130/5/2 128/5/2 131/5/2
f 129/5/2 125/5/2 132/5/2
f 132/5/2 125/5/2 133/5/2
f 130/2/2 131/2/2 134/2/2
f 131/2/2 132/2/2 134/2/2
f 132/2/2 133/2/2 134/2/2
f 134/2/2 133/2/2 135/2/2
f 134/10/2 135/10/2 136/10/2
f 135/2/2 133/2/2 137/2/2
f 136/10/2 135/10/2 137/10/2
f 137/2/2 133/2/2 138/2/2
f 139/9/2 140/9/2 141/9/2
f 141/9/2 140/9/2 142/9/2
f 141/1/2 142/1/2 143/1/2
f 143/1/2 142/1/2 144/1/2
f 145/1/2 146/1/2 149/1/2
f 149/1/2 146/1/2 150/1/2
f 147/1/2 148/1/2 151/1/2
f 151/1/2 148/1/2 152/1/2
f 153/9/2 154/9/2 155/9/2
f 155/9/2 154/9/2 156/9/2
f 157/2/2 158/2/2 159/2/2
f 159/2/2 158/2/2 160/2/2
f 166/7/3 164/7/3 163/7/3
f 167/5/3 165/5/3 164/5/3
f 167/7/3 164/7/3 166/7/3
f 168/5/3 165/5/3 167/5/3
f 169/1/3 162/1/3 161/1/3
f 170/1/3 162/1/3 169/1/3
f 177/2/3 175/2/3 174/2/3
f 177/10/3 176/10/3 175/10/3
f 178/10/3 176/10/3 177/10/3
f 182/2/3 177/2/3 174/2/3
f 182/2/3 178/2/3 177/2/3
f 183/2/3 178/2/3 182/2/3
f 184/9/3 180/9/3 179/9/3
f 185/1/3 181/1/3 180/1/3
f 185/9/3 180/9/3 184/9/3
f 186/1/3 181/1/3 185/1/3
f 187/7/3 172/7/3 171/7/3
f 188/7/3 172/7/3 187/7/3
f 189/5/3 174/5/3 173/5/3
f 190/2/3 182/2/3 174/2/3
f 190/5/3 174/5/3 189/5/3
f 191/10/3 183/10/3 182/10/3
f 191/2/3 182/2/3 190/2/3
f 192/10/3 183/10/3 191/10/3
f 196/4/3 194/4/3 193/4/3
f 197/4/3 194/4/3 196/4/3
f 200/4/3 196/4/3 195/4/3
f 200/4/3 198/4/3 197/4/3
f 200/4/3 197/4/3 196/4/3
f 201/4/3 198/4/3 200/4/3
f 202/4/3 198/4/3 201/4/3
f 203/2/3 200/2/3 199/2/3
f 203/2/3 201/2/3 200/2/3
f 204/2/3 201/2/3 203/2/3
f 205/2/3 201/2/3 204/2/3
f 206/2/3 203/2/3 199/2/3
f 207/2/3 203/2/3 206/2/3
f 208/4/3 205/4/3 204/4/3
f 209/4/3 205/4/3 208/4/3
f 213/5/3 207/5/3 206/5/3
f 214/5/3 207/5/3 213/5/3
f 218/9/3 211/9/3 210/9/3
f 219/2/3 212/2/3 211/2/3
f 219/9/3 211/9/3 218/9/3
f 220/2/3 212/2/3 219/2/3
f 221/9/3 216/9/3 215/9/3
f 222/1/3 217/1/3 216/1/3
f 222/9/3 216/9/3 221/9/3
f 223/1/3 217/1/3 222/1/3
f 230/9/3 225/9/3 224/9/3
f 231/2/3 226/2/3 225/2/3
f 231/9/3 225/9/3 230/9/3
f 232/2/3 226/2/3 231/2/3
f 235/9/3 228/9/3 227/9/3
f 236/1/3 229/1/3 228/1/3
f 236/9/3 228/9/3 235/9/3
f 237/1/3 229/1/3 236/1/3
f 238/5/3 234/5/3 233/5/3
f 239/5/3 234/5/3 238/5/3
f 244/2/3 239/2/3 238/2/3
f 245/9/3 243/9/3 242/9/3
f 245/9/3 241/9/3 240/9/3
f 245/9/3 242/9/3 241/9/3
f 246/9/3 243/9/3 245/9/3
f 247/9/3 243/9/3 246/9/3
f 248/2/3 244/2/3 238/2/3
f 248/2/3 245/2/3 244/2/3
f 248/2/3 246/2/3 245/2/3
f 249/2/3 246/2/3 248/2/3
f 250/4/4 251/4/4 253/4/4
f 253/4/4 251/4/4 254/4/4
f 252/4/4 253/4/4 257/4/4
f 254/4/4 255/4/4 257/4/4
f 253/4/4 254/4/4 257/4/4
f 257/4/4 255/4/4 258/4/4
f 258/4/4 255/4/4 259/4/4
f 256/2/4 257/2/4 260/2/4
f 257/2/4 258/2/4 260/2/4
f 260/2/4 258/2/4 261/2/4
f 261/2/4 258/2/4 262/2/4
f 256/2/4 260/2/4 263/2/4
f 263/2/4 260/2/4 264/2/4
f 261/4/4 262/4/4 265/4/4
f 265/4/4 262/4/4 266/4/4
f 263/5/4 264/5/4 270/5/4
f 270/5/4 264/5/4 271/5/4
f 267/9/4 268/9/4 275/9/4
f 268/2/4 269/2/4 276/2/4
f 275/9/4 268/9/4 276/9/4
f 276/2/4 269/2/4 277/2/4
f 272/9/4 273/9/4 278/9/4
f 273/1/4 274/1/4 279/1/4
f 278/9/4 273/9/4 279/9/4
f 279/1/4 274/1/4 280/1/4
f 281/9/4 282/9/4 287/9/4
f 282/2/4 283/2/4 288/2/4
f 287/9/4 282/9/4 288/9/4
f 288/2/4 283/2/4 289/2/4
f 284/9/4 285/9/4 292/9/4
f 285/1/4 286/1/4 293/1/4
f 292/9/4 285/9/4 293/9/4
f 293/1/4 286/1/4 294/1/4
f 290/5/4 291/5/4 295/5/4
f 295/5/4 291/5/4 296/5/4
f 295/2/4 296/2/4 301/2/4
f 299/9/4 300/9/4 302/9/4
f 297/9/4 298/9/4 302/9/4
f 298/9/4 299/9/4 302/9/4
f 302/9/4 300/9/4 303/9/4
f 303/9/4 300/9/4 304/9/4
f 295/2/4 301/2/4 305/2/4
f 301/2/4 302/2/4 305/2/4
f 302/2/4 303/2/4 305/2/4
f 305/2/4 303/2/4 306/2/4
f 311/9/4 312/9/4 314/9/4
f 312/1/4 313/1/4 315/1/4
f 314/9/4 312/9/4 315/9/4
f 315/1/4 313/1/4 316/1/4
f 307/7/4 308/7/4 317/7/4
f 308/5/4 309/5/4 318/5/4
f 317/7/4 308/7/4 318/7/4
f 309/2/4 310/2/4 319/2/4
f 318/5/4 309/5/4 319/5/4
f 319/2/4 310/2/4 320/2/4
f 321/1/4 322/1/4 323/1/4
f 323/1/4 322/1/4 324/1/4
f 329/9/5 326/9/5 325/9/5
f 330/9/5 326/9/5 329/9/5
f 331/9/5 328/9/5 327/9/5
f 332/9/5 328/9/5 331/9/5
f 335/7/5 334/7/5 333/7/5
f 336/7/5 334/7/5 335/7/5
f 337/7/5 334/7/5 336/7/5
f 338/7/5 334/7/5 337/7/5
f 340/7/5 337/7/5 336/7/5
f 341/7/5 337/7/5 340/7/5
f 343/7/5 340/7/5 339/7/5
f 343/7/5 342/7/5 341/7/5
f 343/7/5 341/7/5 340/7/5
f 344/7/5 342/7/5 343/7/5
f 347/7/5 346/7/5 345/7/5
f 348/7/5 346/7/5 347/7/5
f 355/2/5 350/2/5 349/2/5
f 356/5/5 351/5/5 350/5/5
f 356/2/5 350/2/5 355/2/5
f 357/5/5 351/5/5 356/5/5
f 358/5/5 353/5/5 352/5/5
f 359/2/5 354/2/5 353/2/5
f 359/5/5 353/5/5 358/5/5
f 360/2/5 354/2/5 359/2/5
f 363/4/5 362/4/5 361/4/5
f 364/4/5 362/4/5 363/4/5
f 371/4/5 366/4/5 365/4/5
f 372/4/5 366/4/5 371/4/5
f 373/4/5 368/4/5 367/4/5
f 374/4/5 368/4/5 373/4/5
f 375/9/5 370/9/5 369/9/5
f 376/9/5 370/9/5 375/9/5
f 379/1/5 378/1/5 377/1/5
f 380/1/5 378/1/5 379/1/5
f 381/1/5 378/1/5 380/1/5
f 382/1/5 378/1/5 381/1/5
f 383/1/5 379/1/5 377/1/5
f 384/1/5 379/1/5 383/1/5
f 385/1/5 378/1/5 382/1/5
f 386/1/5 378/1/5 385/1/5
f 387/1/5 384/1/5 383/1/5
f 388/1/5 386/1/5 385/1/5
f 389/1/5 384/1/5 387/1/5
f 390/1/5 388/1/5 385/1/5
f 391/1/5 389/1/5 387/1/5
f 391/1/5 390/1/5 389/1/5
f 392/1/5 388/1/5 390/1/5
f 392/1/5 390/1/5 391/1/5
f 393/5/6 394/5/6 395/5/6
f 395/5/6 394/5/6 396/5/6
f 397/2/6 398/2/6 403/2/6
f 398/5/6 399/5/6 404/5/6
f 403/2/6 398/2/6 404/2/6
f 404/5/6 399/5/6 405/5/6
f 400/5/6 401/5/6 406/5/6
f 401/2/6 402/2/6 407/2/6
f 406/5/6 401/5/6 407/5/6
f 407/2/6 402/2/6 408/2/6
f 409/4/6 410/4/6 416/4/6
f 416/4/6 410/4/6 417/4/6
f 411/2/6 412/2/6 418/2/6
f 412/4/6 413/4/6 419/4/6
f 418/2/6 412/2/6 419/2/6
f 419/4/6 413/4/6 420/4/6
f 414/2/6 415/2/6 421/2/6
f 421/2/6 415/2/6 422/2/6
f 423/1/6 424/1/6 425/1/6
f 425/1/6 424/1/6 426/1/6
f 423/1/6 425/1/6 429/1/6
f 429/1/6 425/1/6 430/1/6
f 426/1/6 424/1/6 431/1/6
f 431/1/6 424/1/6 432/1/6
f 432/1/6 424/1/6 433/1/6
f 427/4/6 428/4/6 434/4/6
f 434/4/6 428/4/6 435/4/6
f 423/1/6 429/1/6 436/1/6
f 432/1/6 433/1/6 439/1/6
f 439/1/6 433/1/6 440/1/6
f 436/1/6 437/1/6 441/1/6
f 439/1/6 440/1/6 442/1/6
f 438/1/6 439/1/6 442/1/6
f 436/1/6 441/1/6 443/1/6
f 441/1/6 442/1/6 443/1/6
f 423/1/6 436/1/6 443/1/6
f 442/1/6 440/1/6 444/1/6
f 443/1/6 442/1/6 444/1/6
f 445/9/6 446/9/6 447/9/6
f 447/9/6 446/9/6 448/9/6
f 449/1/6 450/1/6 452/1/6
f 452/1/6 450/1/6 453/1/6
f 451/1/6 452/1/6 455/1/6
f 453/1/6 454/1/6 455/1/6
f 452/1/6 453/1/6 455/1/6
f 455/1/6 454/1/6 456/1/6
f 456/1/6 454/1/6 457/1/6
f 457/1/6 454/1/6 458/1/6
f 456/1/6 457/1/6 459/1/6
f 459/1/6 457/1/6 460/1/6
