# MagicaVoxel @ Ephtracy

# material
mtllib walk_1.mtl
usemtl palette

# normals
vn -1 0 0
vn 1 0 0
vn 0 0 1
vn 0 0 -1
vn 0 -1 0
vn 0 1 0

# texcoords
vt 0.00976563 0.5
vt 0.201172 0.5
vt 0.208984 0.5
vt 0.501953 0.5
vt 0.537109 0.5
vt 0.830078 0.5
vt 0.833984 0.5
vt 0.931641 0.5
vt 0.990234 0.5
vt 0.994141 0.5

# verts
v -3 3 -0.5
v -3 3 -1.5
v -3 4 1.5
v -3 4 0.5
v -3 4 -0.5
v -3 4 -1.5
v -3 4 -5.5
v -3 5 1.5
v -3 5 0.5
v -3 5 -1.5
v -3 5 -5.5
v -3 6 -0.5
v -3 6 -1.5
v -3 7 0.5
v -3 7 -0.5
v -3 8 0.5
v -3 8 -0.5
v -3 10 2.5
v -3 10 -2.5
v -3 11 2.5
v -3 11 -2.5
v -2 1 0.5
v -2 1 -0.5
v -2 2 0.5
v -2 2 -0.5
v -2 3 1.5
v -2 3 0.5
v -2 3 -0.5
v -2 4 2.5
v -2 4 1.5
v -2 4 0.5
v -2 4 -0.5
v -2 5 2.5
v -2 5 1.5
v -2 5 0.5
v -2 6 -0.5
v -2 6 -1.5
v -2 7 2.5
v -2 7 1.5
v -2 7 0.5
v -2 7 -0.5
v -2 8 1.5
v -2 8 0.5
v -2 8 -0.5
v -2 8 -1.5
v -2 9 1.5
v -2 9 0.5
v -2 10 1.5
v -2 10 0.5
v -2 10 -1.5
v -2 11 0.5
v -2 11 -0.5
v -2 12 0.5
v -2 12 -0.5
v -2 13 0.5
v -2 13 -0.5
v -1 11 1.5
v -1 11 0.5
v -1 11 -0.5
v -1 11 -1.5
v -1 12 1.5
v -1 12 0.5
v -1 12 -0.5
v -1 12 -1.5
v -1 13 1.5
v -1 13 0.5
v -1 13 -0.5
v -1 13 -1.5
v 1 0 0.5
v 1 0 -0.5
v 1 1 0.5
v 1 1 -0.5
v 1 3 0.5
v 1 3 -0.5
v 2 5 3.5
v 2 5 2.5
v 2 6 5.5
v 2 6 3.5
v 2 7 5.5
v 2 7 2.5
v -2 4 -1.5
v -2 4 -5.5
v -2 5 -1.5
v -2 5 -5.5
v -1 1 0.5
v -1 1 -0.5
v -1 2 0.5
v -1 2 -0.5
v -1 3 0.5
v -1 3 -0.5
v 1 11 1.5
v 1 11 0.5
v 1 11 -0.5
v 1 11 -1.5
v 1 12 1.5
v 1 12 0.5
v 1 12 -0.5
v 1 12 -1.5
v 1 13 1.5
v 1 13 0.5
v 1 13 -0.5
v 1 13 -1.5
v 2 0 0.5
v 2 0 -0.5
v 2 1 0.5
v 2 1 -0.5
v 2 3 1.5
v 2 3 0.5
v 2 3 -0.5
v 2 3 -1.5
v 2 4 2.5
v 2 4 1.5
v 2 5 2.5
v 2 5 -0.5
v 2 5 -1.5
v 2 6 2.5
v 2 6 0.5
v 2 7 2.5
v 2 7 1.5
v 2 7 0.5
v 2 7 -0.5
v 2 8 1.5
v 2 8 0.5
v 2 8 -0.5
v 2 8 -1.5
v 2 9 1.5
v 2 9 0.5
v 2 10 1.5
v 2 10 0.5
v 2 10 -1.5
v 2 11 0.5
v 2 11 -0.5
v 2 12 0.5
v 2 12 -0.5
v 2 13 0.5
v 2 13 -0.5
v 3 5 3.5
v 3 5 2.5
v 3 5 -0.5
v 3 6 5.5
v 3 6 3.5
v 3 6 2.5
v 3 6 0.5
v 3 7 5.5
v 3 7 2.5
v 3 7 0.5
v 3 7 -0.5
v 3 8 0.5
v 3 8 -0.5
v 3 10 2.5
v 3 10 -2.5
v 3 11 2.5
v 3 11 -2.5
v 2 6 5.5
v 2 7 5.5
v 3 6 5.5
v 3 7 5.5
v 2 5 3.5
v 2 6 3.5
v 3 5 3.5
v 3 6 3.5
v -3 10 2.5
v -3 11 2.5
v -2 4 2.5
v -2 5 2.5
v -2 7 2.5
v 2 4 2.5
v 2 5 2.5
v 2 7 2.5
v 3 10 2.5
v 3 11 2.5
v -3 4 1.5
v -3 5 1.5
v -2 3 1.5
v -2 4 1.5
v -2 5 1.5
v -2 7 1.5
v -2 8 1.5
v -2 9 1.5
v -2 10 1.5
v -1 9 1.5
v -1 10 1.5
v -1 11 1.5
v -1 12 1.5
v -1 13 1.5
v 1 9 1.5
v 1 10 1.5
v 1 11 1.5
v 1 12 1.5
v 1 13 1.5
v 2 3 1.5
v 2 4 1.5
v 2 7 1.5
v 2 8 1.5
v 2 9 1.5
v 2 10 1.5
v -3 5 0.5
v -3 7 0.5
v -3 8 0.5
v -2 1 0.5
v -2 2 0.5
v -2 3 0.5
v -2 5 0.5
v -2 7 0.5
v -2 8 0.5
v -2 11 0.5
v -2 12 0.5
v -2 13 0.5
v -1 1 0.5
v -1 2 0.5
v -1 3 0.5
v -1 11 0.5
v -1 12 0.5
v -1 13 0.5
v 1 0 0.5
v 1 1 0.5
v 1 3 0.5
v 1 11 0.5
v 1 12 0.5
v 1 13 0.5
v 2 0 0.5
v 2 1 0.5
v 2 3 0.5
v 2 6 0.5
v 2 7 0.5
v 2 8 0.5
v 2 11 0.5
v 2 12 0.5
v 2 13 0.5
v 3 6 0.5
v 3 7 0.5
v 3 8 0.5
v -3 3 -0.5
v -3 4 -0.5
v -2 3 -0.5
v -2 4 -0.5
v 2 6 2.5
v 2 7 2.5
v 3 6 2.5
v 3 7 2.5
v -3 6 -0.5
v -3 7 -0.5
v -3 8 -0.5
v -2 1 -0.5
v -2 2 -0.5
v -2 3 -0.5
v -2 6 -0.5
v -2 7 -0.5
v -2 8 -0.5
v -2 11 -0.5
v -2 12 -0.5
v -2 13 -0.5
v -1 1 -0.5
v -1 2 -0.5
v -1 3 -0.5
v -1 11 -0.5
v -1 12 -0.5
v -1 13 -0.5
v 1 0 -0.5
v 1 1 -0.5
v 1 3 -0.5
v 1 11 -0.5
v 1 12 -0.5
v 1 13 -0.5
v 2 0 -0.5
v 2 1 -0.5
v 2 3 -0.5
v 2 5 -0.5
v 2 7 -0.5
v 2 8 -0.5
v 2 11 -0.5
v 2 12 -0.5
v 2 13 -0.5
v 3 5 -0.5
v 3 7 -0.5
v 3 8 -0.5
v -3 3 -1.5
v -3 4 -1.5
v -3 5 -1.5
v -3 6 -1.5
v -2 3 -1.5
v -2 4 -1.5
v -2 5 -1.5
v -2 6 -1.5
v -2 8 -1.5
v -2 10 -1.5
v -1 11 -1.5
v -1 12 -1.5
v -1 13 -1.5
v 1 11 -1.5
v 1 12 -1.5
v 1 13 -1.5
v 2 3 -1.5
v 2 5 -1.5
v 2 8 -1.5
v 2 10 -1.5
v -3 10 -2.5
v -3 11 -2.5
v 3 10 -2.5
v 3 11 -2.5
v -3 4 -5.5
v -3 5 -5.5
v -2 4 -5.5
v -2 5 -5.5
v 1 0 0.5
v 2 0 0.5
v 1 0 -0.5
v 2 0 -0.5
v -2 1 0.5
v -1 1 0.5
v -2 1 -0.5
v -1 1 -0.5
v -2 3 1.5
v 2 3 1.5
v -2 3 0.5
v -1 3 0.5
v 1 3 0.5
v 2 3 0.5
v -3 3 -0.5
v -2 3 -0.5
v -1 3 -0.5
v 1 3 -0.5
v 2 3 -0.5
v -3 3 -1.5
v -2 3 -1.5
v 2 3 -1.5
v -2 4 2.5
v 2 4 2.5
v -3 4 1.5
v -2 4 1.5
v 2 4 1.5
v -3 4 0.5
v -2 4 0.5
v -3 4 -0.5
v -2 4 -0.5
v -3 4 -1.5
v -2 4 -1.5
v -3 4 -5.5
v -2 4 -5.5
v 2 5 3.5
v 3 5 3.5
v 2 5 2.5
v 3 5 2.5
v 2 5 -0.5
v 3 5 -0.5
v 2 6 5.5
v 3 6 5.5
v 2 6 3.5
v 3 6 3.5
v -3 10 2.5
v 3 10 2.5
v -2 10 1.5
v -1 10 1.5
v 1 10 1.5
v 2 10 1.5
v -2 10 0.5
v 2 10 0.5
v -2 10 -1.5
v 2 10 -1.5
v -3 10 -2.5
v 3 10 -2.5
v -3 5 1.5
v -2 5 1.5
v -3 5 0.5
v -2 5 0.5
v -3 5 -1.5
v -2 5 -1.5
v -3 5 -5.5
v -2 5 -5.5
v 2 6 2.5
v 3 6 2.5
v 2 6 0.5
v 3 6 0.5
v -3 6 -0.5
v -2 6 -0.5
v -3 6 -1.5
v -2 6 -1.5
v 2 7 5.5
v 3 7 5.5
v -2 7 2.5
v 2 7 2.5
v 3 7 2.5
v -2 7 1.5
v 2 7 1.5
v -3 8 0.5
v -2 8 0.5
v 2 8 0.5
v 3 8 0.5
v -3 8 -0.5
v -2 8 -0.5
v 2 8 -0.5
v 3 8 -0.5
v -3 11 2.5
v 3 11 2.5
v -1 11 1.5
v 1 11 1.5
v -2 11 0.5
v -1 11 0.5
v 1 11 0.5
v 2 11 0.5
v -2 11 -0.5
v -1 11 -0.5
v 1 11 -0.5
v 2 11 -0.5
v -1 11 -1.5
v 1 11 -1.5
v -3 11 -2.5
v 3 11 -2.5
v -1 13 1.5
v 1 13 1.5
v -2 13 0.5
v -1 13 0.5
v 1 13 0.5
v 2 13 0.5
v -2 13 -0.5
v -1 13 -0.5
v 1 13 -0.5
v 2 13 -0.5
v -1 13 -1.5
v 1 13 -1.5

# faces
f 5/4/1 2/4/1 1/4/1
f 6/4/1 2/4/1 5/4/1
f 8/4/1 4/4/1 3/4/1
f 9/2/1 5/2/1 4/2/1
f 9/4/1 4/4/1 8/4/1
f 10/4/1 7/4/1 6/4/1
f 10/4/1 6/4/1 5/4/1
f 11/4/1 7/4/1 10/4/1
f 12/2/1 5/2/1 9/2/1
f 12/4/1 10/4/1 5/4/1
f 13/4/1 10/4/1 12/4/1
f 14/2/1 12/2/1 9/2/1
f 15/2/1 12/2/1 14/2/1
f 16/5/1 15/5/1 14/5/1
f 17/5/1 15/5/1 16/5/1
f 20/1/1 19/1/1 18/1/1
f 21/1/1 19/1/1 20/1/1
f 24/9/1 23/9/1 22/9/1
f 25/9/1 23/9/1 24/9/1
f 27/2/1 25/2/1 24/2/1
f 28/2/1 25/2/1 27/2/1
f 30/7/1 27/7/1 26/7/1
f 30/7/1 28/7/1 27/7/1
f 31/7/1 28/7/1 30/7/1
f 32/7/1 28/7/1 31/7/1
f 33/7/1 30/7/1 29/7/1
f 34/7/1 30/7/1 33/7/1
f 38/5/1 35/5/1 34/5/1
f 38/5/1 34/5/1 33/5/1
f 39/5/1 35/5/1 38/5/1
f 40/5/1 35/5/1 39/5/1
f 41/5/1 37/5/1 36/5/1
f 42/5/1 40/5/1 39/5/1
f 43/5/1 40/5/1 42/5/1
f 44/5/1 37/5/1 41/5/1
f 45/5/1 37/5/1 44/5/1
f 46/2/1 43/2/1 42/2/1
f 46/2/1 44/2/1 43/2/1
f 46/2/1 45/2/1 44/2/1
f 47/2/1 45/2/1 46/2/1
f 48/10/1 47/10/1 46/10/1
f 49/2/1 45/2/1 47/2/1
f 49/10/1 47/10/1 48/10/1
f 50/2/1 45/2/1 49/2/1
f 53/9/1 52/9/1 51/9/1
f 54/9/1 52/9/1 53/9/1
f 55/1/1 54/1/1 53/1/1
f 56/1/1 54/1/1 55/1/1
f 61/9/1 58/9/1 57/9/1
f 62/9/1 58/9/1 61/9/1
f 63/9/1 60/9/1 59/9/1
f 64/9/1 60/9/1 63/9/1
f 65/1/1 62/1/1 61/1/1
f 66/1/1 62/1/1 65/1/1
f 67/1/1 64/1/1 63/1/1
f 68/1/1 64/1/1 67/1/1
f 71/9/1 70/9/1 69/9/1
f 72/9/1 70/9/1 71/9/1
f 73/2/1 72/2/1 71/2/1
f 74/2/1 72/2/1 73/2/1
f 78/9/1 76/9/1 75/9/1
f 79/9/1 78/9/1 77/9/1
f 80/9/1 76/9/1 78/9/1
f 80/9/1 78/9/1 79/9/1
f 81/4/2 82/4/2 83/4/2
f 83/4/2 82/4/2 84/4/2
f 85/9/2 86/9/2 87/9/2
f 87/9/2 86/9/2 88/9/2
f 87/2/2 88/2/2 89/2/2
f 89/2/2 88/2/2 90/2/2
f 91/9/2 92/9/2 95/9/2
f 95/9/2 92/9/2 96/9/2
f 93/9/2 94/9/2 97/9/2
f 97/9/2 94/9/2 98/9/2
f 95/1/2 96/1/2 99/1/2
f 99/1/2 96/1/2 100/1/2
f 97/1/2 98/1/2 101/1/2
f 101/1/2 98/1/2 102/1/2
f 103/9/2 104/9/2 105/9/2
f 105/9/2 104/9/2 106/9/2
f 105/2/2 106/2/2 108/2/2
f 108/2/2 106/2/2 109/2/2
f 108/7/2 109/7/2 112/7/2
f 109/7/2 110/7/2 112/7/2
f 107/7/2 108/7/2 112/7/2
f 111/7/2 112/7/2 113/7/2
f 112/7/2 110/7/2 114/7/2
f 113/7/2 112/7/2 114/7/2
f 114/7/2 110/7/2 115/7/2
f 116/5/2 117/5/2 118/5/2
f 118/5/2 117/5/2 119/5/2
f 119/5/2 117/5/2 120/5/2
f 114/5/2 115/5/2 121/5/2
f 119/5/2 120/5/2 122/5/2
f 122/5/2 120/5/2 123/5/2
f 121/5/2 115/5/2 124/5/2
f 124/5/2 115/5/2 125/5/2
f 122/2/2 123/2/2 126/2/2
f 123/2/2 124/2/2 126/2/2
f 124/2/2 125/2/2 126/2/2
f 126/2/2 125/2/2 127/2/2
f 126/10/2 127/10/2 128/10/2
f 127/2/2 125/2/2 129/2/2
f 128/10/2 127/10/2 129/10/2
f 129/2/2 125/2/2 130/2/2
f 131/9/2 132/9/2 133/9/2
f 133/9/2 132/9/2 134/9/2
f 133/1/2 134/1/2 135/1/2
f 135/1/2 134/1/2 136/1/2
f 137/9/2 138/9/2 141/9/2
f 138/2/2 139/2/2 142/2/2
f 141/9/2 138/9/2 142/9/2
f 142/2/2 139/2/2 143/2/2
f 140/9/2 141/9/2 144/9/2
f 141/9/2 142/9/2 144/9/2
f 144/9/2 142/9/2 145/9/2
f 143/2/2 139/2/2 146/2/2
f 146/2/2 139/2/2 147/2/2
f 146/5/2 147/5/2 148/5/2
f 148/5/2 147/5/2 149/5/2
f 150/1/2 151/1/2 152/1/2
f 152/1/2 151/1/2 153/1/2
f 156/9/3 155/9/3 154/9/3
f 157/9/3 155/9/3 156/9/3
f 160/9/3 159/9/3 158/9/3
f 161/9/3 159/9/3 160/9/3
f 167/7/3 165/7/3 164/7/3
f 168/5/3 166/5/3 165/5/3
f 168/7/3 165/7/3 167/7/3
f 169/5/3 166/5/3 168/5/3
f 170/1/3 163/1/3 162/1/3
f 171/1/3 163/1/3 170/1/3
f 175/4/3 173/4/3 172/4/3
f 176/4/3 173/4/3 175/4/3
f 181/10/3 180/10/3 179/10/3
f 181/2/3 179/2/3 178/2/3
f 182/10/3 180/10/3 181/10/3
f 186/2/3 181/2/3 178/2/3
f 186/2/3 182/2/3 181/2/3
f 187/2/3 182/2/3 186/2/3
f 188/9/3 184/9/3 183/9/3
f 189/1/3 185/1/3 184/1/3
f 189/9/3 184/9/3 188/9/3
f 190/1/3 185/1/3 189/1/3
f 191/7/3 175/7/3 174/7/3
f 192/7/3 175/7/3 191/7/3
f 193/5/3 178/5/3 177/5/3
f 194/2/3 186/2/3 178/2/3
f 194/5/3 178/5/3 193/5/3
f 195/10/3 187/10/3 186/10/3
f 195/2/3 186/2/3 194/2/3
f 196/10/3 187/10/3 195/10/3
f 203/2/3 198/2/3 197/2/3
f 204/5/3 199/5/3 198/5/3
f 204/2/3 198/2/3 203/2/3
f 205/5/3 199/5/3 204/5/3
f 209/9/3 201/9/3 200/9/3
f 210/2/3 202/2/3 201/2/3
f 210/9/3 201/9/3 209/9/3
f 211/2/3 202/2/3 210/2/3
f 212/9/3 207/9/3 206/9/3
f 213/1/3 208/1/3 207/1/3
f 213/9/3 207/9/3 212/9/3
f 214/1/3 208/1/3 213/1/3
f 221/9/3 216/9/3 215/9/3
f 222/2/3 217/2/3 216/2/3
f 222/9/3 216/9/3 221/9/3
f 223/2/3 217/2/3 222/2/3
f 227/9/3 219/9/3 218/9/3
f 228/1/3 220/1/3 219/1/3
f 228/9/3 219/9/3 227/9/3
f 229/1/3 220/1/3 228/1/3
f 230/2/3 225/2/3 224/2/3
f 231/5/3 226/5/3 225/5/3
f 231/2/3 225/2/3 230/2/3
f 232/5/3 226/5/3 231/5/3
f 235/4/3 234/4/3 233/4/3
f 236/4/3 234/4/3 235/4/3
f 237/9/4 238/9/4 239/9/4
f 239/9/4 238/9/4 240/9/4
f 241/2/4 242/2/4 247/2/4
f 242/5/4 243/5/4 248/5/4
f 247/2/4 242/2/4 248/2/4
f 248/5/4 243/5/4 249/5/4
f 244/9/4 245/9/4 253/9/4
f 245/2/4 246/2/4 254/2/4
f 253/9/4 245/9/4 254/9/4
f 254/2/4 246/2/4 255/2/4
f 250/9/4 251/9/4 256/9/4
f 251/1/4 252/1/4 257/1/4
f 256/9/4 251/9/4 257/9/4
f 257/1/4 252/1/4 258/1/4
f 259/9/4 260/9/4 265/9/4
f 260/2/4 261/2/4 266/2/4
f 265/9/4 260/9/4 266/9/4
f 266/2/4 261/2/4 267/2/4
f 262/9/4 263/9/4 271/9/4
f 263/1/4 264/1/4 272/1/4
f 271/9/4 263/9/4 272/9/4
f 272/1/4 264/1/4 273/1/4
f 268/2/4 269/2/4 274/2/4
f 269/5/4 270/5/4 275/5/4
f 274/2/4 269/2/4 275/2/4
f 275/5/4 270/5/4 276/5/4
f 277/4/4 278/4/4 281/4/4
f 281/4/4 278/4/4 282/4/4
f 279/4/4 280/4/4 283/4/4
f 283/4/4 280/4/4 284/4/4
f 287/9/4 288/9/4 290/9/4
f 288/1/4 289/1/4 291/1/4
f 290/9/4 288/9/4 291/9/4
f 291/1/4 289/1/4 292/1/4
f 281/7/4 282/7/4 293/7/4
f 282/7/4 283/7/4 293/7/4
f 283/5/4 284/5/4 294/5/4
f 293/7/4 283/7/4 294/7/4
f 284/5/4 285/5/4 294/5/4
f 285/2/4 286/2/4 295/2/4
f 294/5/4 285/5/4 295/5/4
f 295/2/4 286/2/4 296/2/4
f 297/1/4 298/1/4 299/1/4
f 299/1/4 298/1/4 300/1/4
f 301/4/4 302/4/4 303/4/4
f 303/4/4 302/4/4 304/4/4
f 307/9/5 306/9/5 305/9/5
f 308/9/5 306/9/5 307/9/5
f 311/9/5 310/9/5 309/9/5
f 312/9/5 310/9/5 311/9/5
f 315/7/5 314/7/5 313/7/5
f 316/7/5 314/7/5 315/7/5
f 317/7/5 314/7/5 316/7/5
f 318/7/5 314/7/5 317/7/5
f 321/7/5 317/7/5 316/7/5
f 322/7/5 317/7/5 321/7/5
f 324/4/5 320/4/5 319/4/5
f 325/7/5 323/7/5 322/7/5
f 325/4/5 320/4/5 324/4/5
f 325/7/5 321/7/5 320/7/5
f 325/7/5 322/7/5 321/7/5
f 326/7/5 323/7/5 325/7/5
f 330/7/5 328/7/5 327/7/5
f 331/7/5 328/7/5 330/7/5
f 332/4/5 330/4/5 329/4/5
f 333/4/5 330/4/5 332/4/5
f 334/2/5 333/2/5 332/2/5
f 335/2/5 333/2/5 334/2/5
f 338/4/5 337/4/5 336/4/5
f 339/4/5 337/4/5 338/4/5
f 342/9/5 341/9/5 340/9/5
f 343/9/5 341/9/5 342/9/5
f 344/2/5 343/2/5 342/2/5
f 345/2/5 343/2/5 344/2/5
f 348/9/5 347/9/5 346/9/5
f 349/9/5 347/9/5 348/9/5
f 352/1/5 351/1/5 350/1/5
f 353/1/5 351/1/5 352/1/5
f 354/1/5 351/1/5 353/1/5
f 355/1/5 351/1/5 354/1/5
f 356/1/5 352/1/5 350/1/5
f 357/1/5 351/1/5 355/1/5
f 358/1/5 356/1/5 350/1/5
f 359/1/5 351/1/5 357/1/5
f 360/1/5 358/1/5 350/1/5
f 360/1/5 359/1/5 358/1/5
f 361/1/5 351/1/5 359/1/5
f 361/1/5 359/1/5 360/1/5
f 362/4/6 363/4/6 364/4/6
f 364/4/6 363/4/6 365/4/6
f 366/4/6 367/4/6 368/4/6
f 368/4/6 367/4/6 369/4/6
f 370/2/6 371/2/6 372/2/6
f 372/2/6 371/2/6 373/2/6
f 374/4/6 375/4/6 376/4/6
f 376/4/6 375/4/6 377/4/6
f 378/9/6 379/9/6 381/9/6
f 381/9/6 379/9/6 382/9/6
f 380/5/6 381/5/6 383/5/6
f 383/5/6 381/5/6 384/5/6
f 385/5/6 386/5/6 389/5/6
f 389/5/6 386/5/6 390/5/6
f 387/5/6 388/5/6 391/5/6
f 391/5/6 388/5/6 392/5/6
f 393/1/6 394/1/6 395/1/6
f 395/1/6 394/1/6 396/1/6
f 393/1/6 395/1/6 397/1/6
f 397/1/6 395/1/6 398/1/6
f 396/1/6 394/1/6 399/1/6
f 399/1/6 394/1/6 400/1/6
f 393/1/6 397/1/6 401/1/6
f 400/1/6 394/1/6 404/1/6
f 401/1/6 402/1/6 405/1/6
f 403/1/6 404/1/6 406/1/6
f 401/1/6 405/1/6 407/1/6
f 405/1/6 406/1/6 407/1/6
f 393/1/6 401/1/6 407/1/6
f 406/1/6 404/1/6 408/1/6
f 407/1/6 406/1/6 408/1/6
f 404/1/6 394/1/6 408/1/6
f 409/1/6 410/1/6 412/1/6
f 412/1/6 410/1/6 413/1/6
f 411/1/6 412/1/6 415/1/6
f 413/1/6 414/1/6 415/1/6
f 412/1/6 413/1/6 415/1/6
f 415/1/6 414/1/6 416/1/6
f 416/1/6 414/1/6 417/1/6
f 417/1/6 414/1/6 418/1/6
f 416/1/6 417/1/6 419/1/6
f 419/1/6 417/1/6 420/1/6
