# MagicaVoxel @ Ephtracy

# material
mtllib dash.mtl
usemtl palette

# normals
vn -1 0 0
vn 1 0 0
vn 0 0 1
vn 0 0 -1
vn 0 -1 0
vn 0 1 0

# texcoords
vt 0.00976563 0.5
vt 0.201172 0.5
vt 0.208984 0.5
vt 0.501953 0.5
vt 0.537109 0.5
vt 0.830078 0.5
vt 0.833984 0.5
vt 0.931641 0.5
vt 0.990234 0.5
vt 0.994141 0.5

# verts
v -3 6 3.5
v -3 6 0.5
v -3 6 -0.5
v -3 7 3.5
v -3 7 0.5
v -3 7 -0.5
v -3 9 2.5
v -3 9 -2.5
v -3 10 2.5
v -3 10 -2.5
v -2 0 1.5
v -2 0 0.5
v -2 1 1.5
v -2 1 0.5
v -2 2 1.5
v -2 2 0.5
v -2 2 -1.5
v -2 3 2.5
v -2 3 1.5
v -2 3 -1.5
v -2 3 -2.5
v -2 4 2.5
v -2 4 -2.5
v -2 6 4.5
v -2 6 3.5
v -2 6 2.5
v -2 6 0.5
v -2 6 -0.5
v -2 6 -1.5
v -2 6 -2.5
v -2 7 4.5
v -2 7 3.5
v -2 7 1.5
v -2 7 0.5
v -2 7 -0.5
v -2 7 -1.5
v -2 8 1.5
v -2 8 0.5
v -2 9 1.5
v -2 9 0.5
v -2 9 -1.5
v -2 10 0.5
v -2 10 -0.5
v -2 11 0.5
v -2 11 -0.5
v -2 12 0.5
v -2 12 -0.5
v -1 6 8.5
v -1 6 4.5
v -1 6 2.5
v -1 6 1.5
v -1 7 8.5
v -1 7 4.5
v -1 7 2.5
v -1 7 1.5
v -1 10 1.5
v -1 10 0.5
v -1 10 -0.5
v -1 10 -1.5
v -1 11 1.5
v -1 11 0.5
v -1 11 -0.5
v -1 11 -1.5
v -1 12 1.5
v -1 12 0.5
v -1 12 -0.5
v -1 12 -1.5
v 1 0 -0.5
v 1 0 -1.5
v 1 1 -0.5
v 1 1 -1.5
v 1 2 -0.5
v 1 2 -1.5
v 2 6 -1.5
v 2 6 -2.5
v 2 7 -1.5
v 2 7 -2.5
v -2 6 2.5
v -2 6 1.5
v -2 7 2.5
v -2 7 1.5
v -1 0 1.5
v -1 0 0.5
v -1 1 1.5
v -1 1 0.5
v -1 2 1.5
v -1 2 0.5
v 0 6 8.5
v 0 6 4.5
v 0 6 3.5
v 0 6 2.5
v 0 6 1.5
v 0 7 8.5
v 0 7 4.5
v 0 7 3.5
v 0 7 2.5
v 0 7 1.5
v 1 6 4.5
v 1 6 3.5
v 1 7 4.5
v 1 7 3.5
v 1 10 1.5
v 1 10 0.5
v 1 10 -0.5
v 1 10 -1.5
v 1 11 1.5
v 1 11 0.5
v 1 11 -0.5
v 1 11 -1.5
v 1 12 1.5
v 1 12 0.5
v 1 12 -0.5
v 1 12 -1.5
v 2 0 -0.5
v 2 0 -1.5
v 2 1 -0.5
v 2 1 -1.5
v 2 2 1.5
v 2 2 0.5
v 2 2 -0.5
v 2 2 -1.5
v 2 3 2.5
v 2 3 1.5
v 2 3 -1.5
v 2 3 -2.5
v 2 4 2.5
v 2 4 0.5
v 2 4 -0.5
v 2 4 -1.5
v 2 4 -2.5
v 2 5 0.5
v 2 5 -1.5
v 2 6 2.5
v 2 6 1.5
v 2 6 0.5
v 2 6 -0.5
v 2 6 -1.5
v 2 7 1.5
v 2 7 0.5
v 2 7 -0.5
v 2 7 -1.5
v 2 8 1.5
v 2 8 0.5
v 2 9 1.5
v 2 9 0.5
v 2 9 -1.5
v 2 10 0.5
v 2 10 -0.5
v 2 11 0.5
v 2 11 -0.5
v 2 12 0.5
v 2 12 -0.5
v 3 2 0.5
v 3 2 -0.5
v 3 4 -0.5
v 3 4 -1.5
v 3 4 -2.5
v 3 5 0.5
v 3 5 -1.5
v 3 6 0.5
v 3 6 -0.5
v 3 6 -1.5
v 3 7 0.5
v 3 7 -0.5
v 3 7 -2.5
v 3 9 2.5
v 3 9 -2.5
v 3 10 2.5
v 3 10 -2.5
v -1 6 8.5
v -1 7 8.5
v 0 6 8.5
v 0 7 8.5
v -2 6 4.5
v -2 7 4.5
v -1 6 4.5
v -1 7 4.5
v 0 6 4.5
v 0 7 4.5
v 1 6 4.5
v 1 7 4.5
v -3 6 3.5
v -3 7 3.5
v -2 6 3.5
v -2 7 3.5
v -3 9 2.5
v -3 10 2.5
v -2 3 2.5
v -2 4 2.5
v -2 6 2.5
v 0 6 2.5
v 2 3 2.5
v 2 4 2.5
v 2 6 2.5
v 3 9 2.5
v 3 10 2.5
v -2 0 1.5
v -2 1 1.5
v -2 2 1.5
v -2 3 1.5
v -2 6 1.5
v -2 7 1.5
v -2 8 1.5
v -2 9 1.5
v -1 0 1.5
v -1 1 1.5
v -1 2 1.5
v -1 6 1.5
v -1 7 1.5
v -1 8 1.5
v -1 9 1.5
v -1 10 1.5
v -1 11 1.5
v -1 12 1.5
v 0 6 1.5
v 0 7 1.5
v 1 8 1.5
v 1 9 1.5
v 1 10 1.5
v 1 11 1.5
v 1 12 1.5
v 2 2 1.5
v 2 3 1.5
v 2 6 1.5
v 2 7 1.5
v 2 8 1.5
v 2 9 1.5
v -2 10 0.5
v -2 11 0.5
v -2 12 0.5
v -1 10 0.5
v -1 11 0.5
v -1 12 0.5
v 1 10 0.5
v 1 11 0.5
v 1 12 0.5
v 2 2 0.5
v 2 4 0.5
v 2 5 0.5
v 2 6 0.5
v 2 7 0.5
v 2 10 0.5
v 2 11 0.5
v 2 12 0.5
v 3 2 0.5
v 3 5 0.5
v 3 6 0.5
v 3 7 0.5
v 1 0 -0.5
v 1 1 -0.5
v 1 2 -0.5
v 2 0 -0.5
v 2 1 -0.5
v 2 2 -0.5
v 2 5 -1.5
v 2 6 -1.5
v 3 5 -1.5
v 3 6 -1.5
v 0 6 3.5
v 0 7 3.5
v 1 6 3.5
v 1 7 3.5
v -2 6 2.5
v -2 7 2.5
v -1 6 2.5
v -1 7 2.5
v -2 0 0.5
v -2 1 0.5
v -2 2 0.5
v -1 0 0.5
v -1 1 0.5
v -1 2 0.5
v -3 6 -0.5
v -3 7 -0.5
v -2 6 -0.5
v -2 7 -0.5
v -2 10 -0.5
v -2 11 -0.5
v -2 12 -0.5
v -1 10 -0.5
v -1 11 -0.5
v -1 12 -0.5
v 1 10 -0.5
v 1 11 -0.5
v 1 12 -0.5
v 2 2 -0.5
v 2 4 -0.5
v 2 10 -0.5
v 2 11 -0.5
v 2 12 -0.5
v 3 2 -0.5
v 3 4 -0.5
v -2 2 -1.5
v -2 3 -1.5
v -2 6 -1.5
v -2 7 -1.5
v -2 9 -1.5
v -1 10 -1.5
v -1 11 -1.5
v -1 12 -1.5
v 1 0 -1.5
v 1 1 -1.5
v 1 2 -1.5
v 1 10 -1.5
v 1 11 -1.5
v 1 12 -1.5
v 2 0 -1.5
v 2 1 -1.5
v 2 2 -1.5
v 2 3 -1.5
v 2 6 -1.5
v 2 7 -1.5
v 2 9 -1.5
v -3 9 -2.5
v -3 10 -2.5
v -2 3 -2.5
v -2 4 -2.5
v -2 6 -2.5
v 2 3 -2.5
v 2 4 -2.5
v 2 6 -2.5
v 2 7 -2.5
v 3 4 -2.5
v 3 7 -2.5
v 3 9 -2.5
v 3 10 -2.5
v -2 0 1.5
v -1 0 1.5
v -2 0 0.5
v -1 0 0.5
v 1 0 -0.5
v 2 0 -0.5
v 1 0 -1.5
v 2 0 -1.5
v -1 2 1.5
v 2 2 1.5
v -2 2 0.5
v -1 2 0.5
v 2 2 0.5
v 3 2 0.5
v 1 2 -0.5
v 2 2 -0.5
v 3 2 -0.5
v -2 2 -1.5
v 1 2 -1.5
v -2 3 2.5
v 2 3 2.5
v -2 3 1.5
v 2 3 1.5
v -2 3 -1.5
v 2 3 -1.5
v -2 3 -2.5
v 2 3 -2.5
v 2 4 -0.5
v 3 4 -0.5
v 2 4 -1.5
v 3 4 -1.5
v 2 4 -2.5
v 3 4 -2.5
v -1 6 8.5
v 0 6 8.5
v -2 6 4.5
v -1 6 4.5
v 0 6 4.5
v 1 6 4.5
v -3 6 3.5
v -2 6 3.5
v 0 6 3.5
v 1 6 3.5
v -2 6 2.5
v 0 6 2.5
v -3 6 0.5
v -2 6 0.5
v 2 6 0.5
v 3 6 0.5
v -3 6 -0.5
v -2 6 -0.5
v 2 6 -0.5
v 3 6 -0.5
v 2 6 -1.5
v 3 6 -1.5
v -3 9 2.5
v 3 9 2.5
v -2 9 1.5
v -1 9 1.5
v 1 9 1.5
v 2 9 1.5
v -2 9 0.5
v 2 9 0.5
v -2 9 -1.5
v 2 9 -1.5
v -3 9 -2.5
v 3 9 -2.5
v 2 5 0.5
v 3 5 0.5
v 2 5 -1.5
v 3 5 -1.5
v -2 6 2.5
v -1 6 2.5
v 0 6 2.5
v 2 6 2.5
v -2 6 1.5
v -1 6 1.5
v 0 6 1.5
v 2 6 1.5
v -2 6 -1.5
v 2 6 -1.5
v -2 6 -2.5
v 2 6 -2.5
v -1 7 8.5
v 0 7 8.5
v -2 7 4.5
v -1 7 4.5
v 0 7 4.5
v 1 7 4.5
v -3 7 3.5
v -2 7 3.5
v 0 7 3.5
v 1 7 3.5
v -2 7 2.5
v -1 7 2.5
v 0 7 2.5
v -2 7 1.5
v -1 7 1.5
v 0 7 1.5
v -3 7 0.5
v -2 7 0.5
v 2 7 0.5
v 3 7 0.5
v -3 7 -0.5
v -2 7 -0.5
v 2 7 -0.5
v 3 7 -0.5
v 2 7 -1.5
v 2 7 -2.5
v 3 7 -2.5
v -3 10 2.5
v 3 10 2.5
v -1 10 1.5
v 1 10 1.5
v -2 10 0.5
v -1 10 0.5
v 1 10 0.5
v 2 10 0.5
v -2 10 -0.5
v -1 10 -0.5
v 1 10 -0.5
v 2 10 -0.5
v -1 10 -1.5
v 1 10 -1.5
v -3 10 -2.5
v 3 10 -2.5
v -1 12 1.5
v 1 12 1.5
v -2 12 0.5
v -1 12 0.5
v 1 12 0.5
v 2 12 0.5
v -2 12 -0.5
v -1 12 -0.5
v 1 12 -0.5
v 2 12 -0.5
v -1 12 -1.5
v 1 12 -1.5

# faces
f 4/2/1 2/2/1 1/2/1
f 5/5/1 3/5/1 2/5/1
f 5/2/1 2/2/1 4/2/1
f 6/5/1 3/5/1 5/5/1
f 9/1/1 8/1/1 7/1/1
f 10/1/1 8/1/1 9/1/1
f 13/9/1 12/9/1 11/9/1
f 14/9/1 12/9/1 13/9/1
f 15/2/1 14/2/1 13/2/1
f 16/2/1 14/2/1 15/2/1
f 19/7/1 16/7/1 15/7/1
f 19/7/1 17/7/1 16/7/1
f 20/7/1 17/7/1 19/7/1
f 22/7/1 19/7/1 18/7/1
f 22/7/1 21/7/1 20/7/1
f 22/7/1 20/7/1 19/7/1
f 23/7/1 21/7/1 22/7/1
f 26/5/1 23/5/1 22/5/1
f 27/5/1 23/5/1 26/5/1
f 28/5/1 23/5/1 27/5/1
f 29/5/1 23/5/1 28/5/1
f 30/5/1 23/5/1 29/5/1
f 31/4/1 25/4/1 24/4/1
f 32/4/1 25/4/1 31/4/1
f 35/5/1 29/5/1 28/5/1
f 36/5/1 29/5/1 35/5/1
f 37/2/1 34/2/1 33/2/1
f 37/2/1 36/2/1 35/2/1
f 37/2/1 35/2/1 34/2/1
f 38/2/1 36/2/1 37/2/1
f 39/10/1 38/10/1 37/10/1
f 40/2/1 36/2/1 38/2/1
f 40/10/1 38/10/1 39/10/1
f 41/2/1 36/2/1 40/2/1
f 44/9/1 43/9/1 42/9/1
f 45/9/1 43/9/1 44/9/1
f 46/1/1 45/1/1 44/1/1
f 47/1/1 45/1/1 46/1/1
f 52/4/1 49/4/1 48/4/1
f 53/4/1 49/4/1 52/4/1
f 54/4/1 51/4/1 50/4/1
f 55/4/1 51/4/1 54/4/1
f 60/9/1 57/9/1 56/9/1
f 61/9/1 57/9/1 60/9/1
f 62/9/1 59/9/1 58/9/1
f 63/9/1 59/9/1 62/9/1
f 64/1/1 61/1/1 60/1/1
f 65/1/1 61/1/1 64/1/1
f 66/1/1 63/1/1 62/1/1
f 67/1/1 63/1/1 66/1/1
f 70/9/1 69/9/1 68/9/1
f 71/9/1 69/9/1 70/9/1
f 72/2/1 71/2/1 70/2/1
f 73/2/1 71/2/1 72/2/1
f 76/2/1 75/2/1 74/2/1
f 77/2/1 75/2/1 76/2/1
f 78/2/2 79/2/2 80/2/2
f 80/2/2 79/2/2 81/2/2
f 82/9/2 83/9/2 84/9/2
f 84/9/2 83/9/2 85/9/2
f 84/2/2 85/2/2 86/2/2
f 86/2/2 85/2/2 87/2/2
f 88/4/2 89/4/2 93/4/2
f 93/4/2 89/4/2 94/4/2
f 90/2/2 91/2/2 95/2/2
f 91/4/2 92/4/2 96/4/2
f 95/2/2 91/2/2 96/2/2
f 96/4/2 92/4/2 97/4/2
f 98/4/2 99/4/2 100/4/2
f 100/4/2 99/4/2 101/4/2
f 102/9/2 103/9/2 106/9/2
f 106/9/2 103/9/2 107/9/2
f 104/9/2 105/9/2 108/9/2
f 108/9/2 105/9/2 109/9/2
f 106/1/2 107/1/2 110/1/2
f 110/1/2 107/1/2 111/1/2
f 108/1/2 109/1/2 112/1/2
f 112/1/2 109/1/2 113/1/2
f 114/9/2 115/9/2 116/9/2
f 116/9/2 115/9/2 117/9/2
f 116/2/2 117/2/2 120/2/2
f 120/2/2 117/2/2 121/2/2
f 118/7/2 119/7/2 123/7/2
f 120/7/2 121/7/2 124/7/2
f 122/7/2 123/7/2 126/7/2
f 123/7/2 119/7/2 127/7/2
f 126/7/2 123/7/2 127/7/2
f 120/7/2 124/7/2 128/7/2
f 124/7/2 125/7/2 128/7/2
f 128/7/2 125/7/2 129/7/2
f 129/7/2 125/7/2 130/7/2
f 126/5/2 127/5/2 131/5/2
f 126/5/2 131/5/2 133/5/2
f 131/5/2 132/5/2 133/5/2
f 133/5/2 132/5/2 134/5/2
f 134/5/2 132/5/2 135/5/2
f 135/5/2 132/5/2 136/5/2
f 136/5/2 132/5/2 137/5/2
f 134/5/2 135/5/2 138/5/2
f 138/5/2 135/5/2 139/5/2
f 138/2/2 139/2/2 142/2/2
f 140/2/2 141/2/2 142/2/2
f 139/2/2 140/2/2 142/2/2
f 142/2/2 141/2/2 143/2/2
f 142/10/2 143/10/2 144/10/2
f 143/2/2 141/2/2 145/2/2
f 144/10/2 143/10/2 145/10/2
f 145/2/2 141/2/2 146/2/2
f 147/9/2 148/9/2 149/9/2
f 149/9/2 148/9/2 150/9/2
f 149/1/2 150/1/2 151/1/2
f 151/1/2 150/1/2 152/1/2
f 153/9/2 154/9/2 155/9/2
f 153/9/2 155/9/2 158/9/2
f 155/9/2 156/9/2 158/9/2
f 156/2/2 157/2/2 159/2/2
f 158/9/2 156/9/2 159/9/2
f 159/2/2 157/2/2 162/2/2
f 160/5/2 161/5/2 163/5/2
f 161/2/2 162/2/2 164/2/2
f 163/5/2 161/5/2 164/5/2
f 162/2/2 157/2/2 165/2/2
f 164/2/2 162/2/2 165/2/2
f 166/1/2 167/1/2 168/1/2
f 168/1/2 167/1/2 169/1/2
f 172/4/3 171/4/3 170/4/3
f 173/4/3 171/4/3 172/4/3
f 176/4/3 175/4/3 174/4/3
f 177/4/3 175/4/3 176/4/3
f 180/4/3 179/4/3 178/4/3
f 181/4/3 179/4/3 180/4/3
f 184/2/3 183/2/3 182/2/3
f 185/2/3 183/2/3 184/2/3
f 191/5/3 190/5/3 189/5/3
f 192/7/3 189/7/3 188/7/3
f 193/5/3 191/5/3 189/5/3
f 193/7/3 189/7/3 192/7/3
f 194/5/3 191/5/3 193/5/3
f 195/1/3 187/1/3 186/1/3
f 196/1/3 187/1/3 195/1/3
f 205/9/3 198/9/3 197/9/3
f 206/2/3 199/2/3 198/2/3
f 206/9/3 198/9/3 205/9/3
f 207/7/3 200/7/3 199/7/3
f 207/2/3 199/2/3 206/2/3
f 208/5/3 202/5/3 201/5/3
f 209/2/3 203/2/3 202/2/3
f 209/5/3 202/5/3 208/5/3
f 210/10/3 204/10/3 203/10/3
f 210/2/3 203/2/3 209/2/3
f 211/10/3 204/10/3 210/10/3
f 216/2/3 211/2/3 210/2/3
f 216/2/3 210/2/3 209/2/3
f 217/2/3 211/2/3 216/2/3
f 218/2/3 211/2/3 217/2/3
f 219/9/3 213/9/3 212/9/3
f 220/1/3 214/1/3 213/1/3
f 220/9/3 213/9/3 219/9/3
f 221/1/3 214/1/3 220/1/3
f 222/7/3 200/7/3 207/7/3
f 223/7/3 200/7/3 222/7/3
f 224/5/3 216/5/3 215/5/3
f 225/2/3 217/2/3 216/2/3
f 225/5/3 216/5/3 224/5/3
f 226/10/3 218/10/3 217/10/3
f 226/2/3 217/2/3 225/2/3
f 227/10/3 218/10/3 226/10/3
f 231/9/3 229/9/3 228/9/3
f 232/1/3 230/1/3 229/1/3
f 232/9/3 229/9/3 231/9/3
f 233/1/3 230/1/3 232/1/3
f 242/9/3 235/9/3 234/9/3
f 243/1/3 236/1/3 235/1/3
f 243/9/3 235/9/3 242/9/3
f 244/1/3 236/1/3 243/1/3
f 245/9/3 238/9/3 237/9/3
f 245/9/3 239/9/3 238/9/3
f 246/9/3 239/9/3 245/9/3
f 247/5/3 241/5/3 240/5/3
f 248/5/3 241/5/3 247/5/3
f 252/9/3 250/9/3 249/9/3
f 253/2/3 251/2/3 250/2/3
f 253/9/3 250/9/3 252/9/3
f 254/2/3 251/2/3 253/2/3
f 257/2/3 256/2/3 255/2/3
f 258/2/3 256/2/3 257/2/3
f 259/4/4 260/4/4 261/4/4
f 261/4/4 260/4/4 262/4/4
f 263/2/4 264/2/4 265/2/4
f 265/2/4 264/2/4 266/2/4
f 267/9/4 268/9/4 270/9/4
f 268/2/4 269/2/4 271/2/4
f 270/9/4 268/9/4 271/9/4
f 271/2/4 269/2/4 272/2/4
f 273/5/4 274/5/4 275/5/4
f 275/5/4 274/5/4 276/5/4
f 277/9/4 278/9/4 280/9/4
f 278/1/4 279/1/4 281/1/4
f 280/9/4 278/9/4 281/9/4
f 281/1/4 279/1/4 282/1/4
f 283/9/4 284/9/4 288/9/4
f 284/1/4 285/1/4 289/1/4
f 288/9/4 284/9/4 289/9/4
f 289/1/4 285/1/4 290/1/4
f 286/9/4 287/9/4 291/9/4
f 291/9/4 287/9/4 292/9/4
f 293/7/4 294/7/4 303/7/4
f 298/9/4 299/9/4 304/9/4
f 299/1/4 300/1/4 305/1/4
f 304/9/4 299/9/4 305/9/4
f 305/1/4 300/1/4 306/1/4
f 301/9/4 302/9/4 307/9/4
f 302/2/4 303/2/4 308/2/4
f 307/9/4 302/9/4 308/9/4
f 303/7/4 294/7/4 309/7/4
f 308/2/4 303/2/4 309/2/4
f 309/7/4 294/7/4 310/7/4
f 295/5/4 296/5/4 311/5/4
f 296/2/4 297/2/4 312/2/4
f 311/5/4 296/5/4 312/5/4
f 312/2/4 297/2/4 313/2/4
f 316/7/4 317/7/4 319/7/4
f 317/5/4 318/5/4 320/5/4
f 319/7/4 317/7/4 320/7/4
f 320/5/4 318/5/4 321/5/4
f 321/2/4 322/2/4 323/2/4
f 320/2/4 321/2/4 323/2/4
f 323/2/4 322/2/4 324/2/4
f 314/1/4 315/1/4 325/1/4
f 325/1/4 315/1/4 326/1/4
f 329/9/5 328/9/5 327/9/5
f 330/9/5 328/9/5 329/9/5
f 333/9/5 332/9/5 331/9/5
f 334/9/5 332/9/5 333/9/5
f 338/7/5 336/7/5 335/7/5
f 339/7/5 336/7/5 338/7/5
f 341/7/5 338/7/5 337/7/5
f 341/7/5 339/7/5 338/7/5
f 342/9/5 340/9/5 339/9/5
f 342/7/5 339/7/5 341/7/5
f 343/9/5 340/9/5 342/9/5
f 344/7/5 341/7/5 337/7/5
f 345/7/5 341/7/5 344/7/5
f 348/7/5 347/7/5 346/7/5
f 349/7/5 347/7/5 348/7/5
f 352/7/5 351/7/5 350/7/5
f 353/7/5 351/7/5 352/7/5
f 356/9/5 355/9/5 354/9/5
f 357/9/5 355/9/5 356/9/5
f 358/2/5 357/2/5 356/2/5
f 359/2/5 357/2/5 358/2/5
f 363/4/5 361/4/5 360/4/5
f 364/4/5 361/4/5 363/4/5
f 367/4/5 363/4/5 362/4/5
f 367/4/5 365/4/5 364/4/5
f 367/4/5 364/4/5 363/4/5
f 368/4/5 365/4/5 367/4/5
f 369/4/5 365/4/5 368/4/5
f 370/2/5 367/2/5 366/2/5
f 370/2/5 368/2/5 367/2/5
f 371/2/5 368/2/5 370/2/5
f 372/2/5 370/2/5 366/2/5
f 373/2/5 370/2/5 372/2/5
f 376/5/5 373/5/5 372/5/5
f 377/5/5 373/5/5 376/5/5
f 378/5/5 375/5/5 374/5/5
f 379/5/5 375/5/5 378/5/5
f 380/2/5 379/2/5 378/2/5
f 381/2/5 379/2/5 380/2/5
f 384/1/5 383/1/5 382/1/5
f 385/1/5 383/1/5 384/1/5
f 386/1/5 383/1/5 385/1/5
f 387/1/5 383/1/5 386/1/5
f 388/1/5 384/1/5 382/1/5
f 389/1/5 383/1/5 387/1/5
f 390/1/5 388/1/5 382/1/5
f 391/1/5 383/1/5 389/1/5
f 392/1/5 390/1/5 382/1/5
f 392/1/5 391/1/5 390/1/5
f 393/1/5 383/1/5 391/1/5
f 393/1/5 391/1/5 392/1/5
f 394/9/6 395/9/6 396/9/6
f 396/9/6 395/9/6 397/9/6
f 398/5/6 399/5/6 402/5/6
f 402/5/6 399/5/6 403/5/6
f 400/5/6 401/5/6 404/5/6
f 404/5/6 401/5/6 405/5/6
f 406/5/6 407/5/6 408/5/6
f 408/5/6 407/5/6 409/5/6
f 410/4/6 411/4/6 413/4/6
f 413/4/6 411/4/6 414/4/6
f 412/4/6 413/4/6 417/4/6
f 414/4/6 415/4/6 417/4/6
f 413/4/6 414/4/6 417/4/6
f 417/4/6 415/4/6 418/4/6
f 418/4/6 415/4/6 419/4/6
f 416/2/6 417/2/6 420/2/6
f 417/2/6 418/2/6 420/2/6
f 420/2/6 418/2/6 421/2/6
f 421/2/6 418/2/6 422/2/6
f 416/2/6 420/2/6 423/2/6
f 421/4/6 422/4/6 424/4/6
f 424/4/6 422/4/6 425/4/6
f 416/2/6 423/2/6 426/2/6
f 426/2/6 423/2/6 427/2/6
f 426/5/6 427/5/6 430/5/6
f 430/5/6 427/5/6 431/5/6
f 428/5/6 429/5/6 432/5/6
f 432/5/6 429/5/6 433/5/6
f 432/2/6 433/2/6 434/2/6
f 434/2/6 433/2/6 435/2/6
f 435/2/6 433/2/6 436/2/6
f 437/1/6 438/1/6 439/1/6
f 439/1/6 438/1/6 440/1/6
f 437/1/6 439/1/6 441/1/6
f 441/1/6 439/1/6 442/1/6
f 440/1/6 438/1/6 443/1/6
f 443/1/6 438/1/6 444/1/6
f 437/1/6 441/1/6 445/1/6
f 444/1/6 438/1/6 448/1/6
f 445/1/6 446/1/6 449/1/6
f 447/1/6 448/1/6 450/1/6
f 445/1/6 449/1/6 451/1/6
f 449/1/6 450/1/6 451/1/6
f 437/1/6 445/1/6 451/1/6
f 450/1/6 448/1/6 452/1/6
f 451/1/6 450/1/6 452/1/6
f 448/1/6 438/1/6 452/1/6
f 453/1/6 454/1/6 456/1/6
f 456/1/6 454/1/6 457/1/6
f 455/1/6 456/1/6 459/1/6
f 457/1/6 458/1/6 459/1/6
f 456/1/6 457/1/6 459/1/6
f 459/1/6 458/1/6 460/1/6
f 460/1/6 458/1/6 461/1/6
f 461/1/6 458/1/6 462/1/6
f 460/1/6 461/1/6 463/1/6
f 463/1/6 461/1/6 464/1/6
